<?xml version="1.0" encoding="UTF-8"?>
<!-- Generated by Pixelmator Pro 3.7.1 -->
<svg width="394" height="104" viewBox="0 0 394 104" xmlns="http://www.w3.org/2000/svg">
    <g id="g1">
        <clipPath id="clipPath1">
            <path d="M 38.294988 18.591877 L 374.294543 18.044461 L 374.398812 82.044376 L 38.399258 82.591792 Z"/>
        </clipPath>
        <g id="g2" clip-path="url(#clipPath1)">
            <g id="g3">
                <g id="g4">
                    <g id="g5">
                        <path id="path1" fill="#c8c5c5" stroke="none" d="M 42.344242 68.366074 L 42.342781 67.47023 C 43.40995 67.135162 44.101498 66.425713 44.422653 65.341843 C 44.73859 64.257996 44.897301 62.570236 44.89357 60.278568 L 44.853481 35.674446 C 44.849274 33.091103 44.684505 31.06012 44.364376 29.571075 C 44.039036 28.087234 43.558071 26.983826 42.921478 26.260925 C 42.279686 25.543221 41.471516 25.008064 40.502197 24.660675 L 40.50074 23.764862 L 50.063225 23.749283 L 65.834938 49.84861 L 80.750687 23.699287 L 89.813171 23.684525 L 89.814629 24.580338 C 88.825623 24.930916 88.014 25.468704 87.379745 26.188492 C 86.755928 26.913445 86.283775 28.018402 85.968475 29.503296 C 85.647995 30.993385 85.495056 33.024887 85.499268 35.608223 L 85.539352 60.212349 C 85.543083 62.504017 85.70208 64.191261 86.026756 65.274063 C 86.346237 66.356888 87.034889 67.064095 88.092712 67.395699 L 88.09417 68.291542 L 76.240036 68.310852 L 76.238571 67.415009 C 77.305733 67.079941 77.997276 66.370483 78.318436 65.286621 C 78.634377 64.202774 78.793091 62.515015 78.78936 60.223347 L 78.739128 29.390076 L 63.491158 56.227436 L 62.011993 56.229847 L 45.990086 30.005928 L 46.033157 56.443378 C 46.037392 59.042328 46.207382 61.083725 46.543137 62.567558 C 46.889313 64.056572 47.427563 65.159866 48.152695 65.877441 C 48.872623 66.60022 49.784939 67.124786 50.884434 67.456314 L 50.885895 68.352158 Z M 42.344242 68.366074"/>
                    </g>
                </g>
            </g>
            <g id="g6">
                <g id="g7">
                    <g id="g8">
                        <path id="path2" fill="#c8c5c5" stroke="none" d="M 106.954132 68.260818 L 106.952675 67.364975 C 107.926086 67.03006 108.836487 66.377525 109.699478 65.402161 C 110.572876 64.416367 111.434914 62.857662 112.296043 60.731258 L 124.143692 31.149414 C 124.610527 29.971588 124.566986 28.825813 124.013092 27.71212 L 123.197678 25.921791 L 129.422287 23.119995 L 145.296097 60.739994 C 146.184906 62.821892 147.04158 64.356949 147.866104 65.339981 C 148.701019 66.312576 149.478119 66.962357 150.202621 67.29451 L 150.204071 68.190353 L 138.620758 68.209221 L 138.619308 67.313385 C 139.670837 66.978333 140.060394 66.32666 139.782761 65.353149 C 139.499908 64.369232 138.914078 62.833736 138.025269 60.751839 L 134.197845 51.591404 L 117.177032 51.619137 L 113.504372 60.72929 C 112.658882 62.855667 112.322906 64.434341 112.491249 65.460114 C 112.659561 66.475464 113.275177 67.104675 114.348495 67.352921 L 114.349953 68.248764 Z M 117.550369 50.597683 L 133.737854 50.571312 L 125.497459 30.897209 Z M 117.550369 50.597683"/>
                    </g>
                </g>
            </g>
            <g id="g9">
                <g id="g10">
                    <g id="g11">
                        <path id="path3" fill="#c8c5c5" stroke="none" d="M 167.666809 68.161896 L 167.665344 67.266052 C 168.716873 66.931015 169.403229 66.221573 169.72438 65.137695 C 170.040314 64.053856 170.19902 62.366093 170.195297 60.074425 L 170.148987 31.657806 C 170.145264 29.36615 169.981064 27.678917 169.661591 26.596092 C 169.336899 25.513275 168.648239 24.800865 167.595596 24.453613 L 167.594131 23.5578 L 179.448273 23.53849 L 179.449738 24.434303 C 178.377396 24.785019 177.685852 25.49968 177.369904 26.583534 C 177.048752 27.667404 176.895248 29.355156 176.898987 31.646812 L 176.945282 60.063427 C 176.94902 62.355099 177.108017 64.042343 177.432693 65.125137 C 177.752167 66.207962 178.446045 66.915161 179.519485 67.24675 L 179.52095 68.142586 Z M 167.666809 68.161896"/>
                    </g>
                </g>
            </g>
            <g id="g12">
                <g id="g13">
                    <g id="g14">
                        <path id="path4" fill="#c8c5c5" stroke="none" d="M 216.152954 68.728729 C 212.871704 68.734085 209.8293 68.280708 207.025726 67.368607 C 204.216934 66.456505 202.006897 65.408028 200.395569 64.21273 L 200.13002 54.671494 L 200.96315 54.545135 C 201.852509 56.960346 203.074799 59.135448 204.619598 61.060013 C 206.174835 62.98978 208.062744 64.528366 210.272964 65.675812 C 212.48317 66.812836 214.989273 67.376457 217.796585 67.371887 C 219.28096 67.369461 220.660645 67.06514 221.940903 66.448471 C 223.215958 65.837021 224.256149 64.93428 225.061478 63.735043 C 225.861633 62.541035 226.265488 61.076828 226.262665 59.33725 C 226.260101 57.76955 225.804749 56.400494 224.901825 55.235291 C 224.009293 54.070087 222.877411 53.051086 221.500992 52.178326 C 220.124573 51.305569 218.664993 50.547539 217.122269 49.893803 C 215.589951 49.245251 214.193161 48.664196 212.931915 48.150627 C 210.763748 47.227062 208.762238 46.298042 206.927383 45.368732 C 205.102936 44.429001 203.637421 43.228264 202.525665 41.771729 C 201.424316 40.304771 200.874237 38.336914 200.870239 35.878601 C 200.863785 31.920265 202.327438 28.792877 205.271622 26.496422 C 208.226227 24.199921 212.20874 23.047615 217.22435 23.039444 C 219.59935 23.035576 221.813263 23.27153 223.871307 23.736931 C 225.939774 24.191902 227.800217 24.845123 229.45784 25.686172 L 229.721344 33.977409 L 229.013412 34.228561 C 227.700821 30.970291 225.78009 28.473419 223.251205 26.737946 C 220.717102 24.992065 217.897995 24.121658 214.78862 24.126724 C 212.246933 24.130867 210.091858 24.853127 208.333786 26.283089 C 206.570465 27.702621 205.693436 29.662392 205.69751 32.162392 C 205.699814 33.568642 206.045547 34.786827 206.745178 35.827347 C 207.455185 36.867874 208.394165 37.772583 209.562088 38.531105 C 210.72998 39.29483 211.981079 39.964668 213.315369 40.545818 C 214.660049 41.11655 215.973419 41.645664 217.255478 42.143574 C 218.865891 42.781578 220.507629 43.461185 222.175461 44.177219 C 223.853729 44.898453 225.396774 45.750095 226.804626 46.732178 C 228.207245 47.703865 229.334137 48.868687 230.185318 50.226677 C 231.046921 51.589867 231.481857 53.219364 231.484955 55.120407 C 231.48848 57.287064 231.038513 59.2253 230.140274 60.935108 C 229.252411 62.634464 228.06723 64.058273 226.584732 65.211731 C 225.097 66.354782 223.442169 67.22728 221.609818 67.824013 C 219.787857 68.420731 217.970657 68.725769 216.152954 68.728729 Z M 216.152954 68.728729"/>
                    </g>
                </g>
            </g>
            <g id="g15">
                <g id="g16">
                    <g id="g17">
                        <path id="path5" fill="#c8c5c5" stroke="none" d="M 274.820007 68.633148 C 272.096069 68.637589 269.392212 68.18367 266.713623 67.271362 C 264.045471 66.359032 261.590088 64.961998 259.352631 63.075016 C 257.12558 61.193222 255.33522 58.800308 253.98674 55.896248 C 252.648666 52.981754 251.976364 49.534924 251.969864 45.545349 C 251.964737 42.394306 252.506821 39.450714 253.601318 36.709351 C 254.706238 33.973175 256.264832 31.574791 258.2771 29.514221 C 260.299774 27.443207 262.708588 25.819496 265.498352 24.6483 C 268.298523 23.477043 271.38092 22.88871 274.745483 22.883232 C 277.422577 22.878868 280.11084 23.343239 282.810242 24.265907 C 285.504486 25.193825 287.9599 26.606483 290.171356 28.503914 C 292.382721 30.390945 294.157471 32.778679 295.495514 35.661942 C 296.843964 38.550354 297.52655 41.945076 297.532928 45.846119 C 297.539215 49.710693 296.867645 53.076385 295.528564 55.953568 C 294.19989 58.820316 292.417297 61.187801 290.185974 63.066441 C 287.965057 64.934654 285.514191 66.324051 282.838593 67.245087 C 280.173462 68.166107 277.497101 68.628792 274.820007 68.633148 Z M 258.588501 41.638733 C 258.802032 44.820671 259.452911 47.908161 260.541107 50.906391 C 261.629333 53.904625 263.039948 56.584625 264.783386 58.941162 C 266.537231 61.287262 268.566315 63.158958 270.875854 64.556244 C 273.195862 65.958717 275.717865 66.652512 278.441772 66.648079 C 281.717834 66.642746 284.305176 65.909363 286.209045 64.447922 C 288.123322 62.976051 289.463928 61.046783 290.241302 58.670517 C 291.029114 56.283821 291.316528 53.684383 291.103607 50.87743 C 290.832458 47.492458 290.186523 44.227882 289.17099 41.088909 C 288.150238 37.939522 286.775848 35.113647 285.05304 32.616447 C 283.324982 30.108826 281.316528 28.132935 279.022522 26.688766 C 276.728516 25.249786 274.196106 24.529938 271.435669 24.534439 C 268.545044 24.539146 266.103516 25.246246 264.105774 26.650566 C 262.108093 28.060074 260.632141 30.04686 259.678009 32.616104 C 258.734253 35.190582 258.374603 38.196358 258.588501 41.638733 Z M 258.588501 41.638733"/>
                    </g>
                </g>
            </g>
            <g id="g18">
                <g id="g19">
                    <g id="g20">
                        <path id="path6" fill="#c8c5c5" stroke="none" d="M 352.786621 68.360306 L 322.85022 30.700676 L 322.891418 55.992317 C 322.89566 58.591267 323.065643 60.632664 323.401398 62.116493 C 323.747589 63.605511 324.285858 64.708809 325.010956 65.426376 C 325.730896 66.149155 326.643219 66.673721 327.742737 67.005257 L 327.744171 67.9011 L 319.223358 67.914978 L 319.221893 67.019135 C 320.273438 66.684097 320.959778 65.974655 321.280914 64.890778 C 321.596893 63.806938 321.755585 62.119175 321.751831 59.827507 L 321.705536 31.410889 C 321.701813 29.119232 321.480316 27.432091 321.051483 26.349449 C 320.633026 25.266785 319.741241 24.554703 318.381287 24.207954 L 318.379852 23.312141 L 325.588165 23.300392 L 352.392761 56.777584 L 352.357544 35.173454 C 352.353333 32.590118 352.172943 30.559158 351.826752 29.070152 C 351.491028 27.586327 350.957977 26.483002 350.238068 25.760239 C 349.512909 25.042671 348.600586 24.50769 347.506256 24.1605 L 347.504791 23.264687 L 356.088135 23.250702 L 356.0896 24.146515 C 355.032867 24.497208 354.346558 25.211861 354.030579 26.295715 C 353.709442 27.379585 353.555939 29.067337 353.559692 31.358994 L 353.619965 68.358948 Z M 352.786621 68.360306"/>
                    </g>
                </g>
            </g>
        </g>
    </g>
    <g id="g21">
        <clipPath id="clipPath2">
            <path d="M 74.39921 82.53314 L 333.065523 82.111717 L 333.091591 98.111696 L 74.425278 98.533119 Z"/>
        </clipPath>
        <g id="g22" clip-path="url(#clipPath2)">
            <g id="g23">
                <g id="g24">
                    <g id="g25">
                        <path id="path7" fill="#b4a188" stroke="none" d="M 83.796921 93.818993 L 83.787346 87.944 L 80.87867 92.844589 L 80.357826 92.845436 L 77.433266 87.996025 L 77.442772 93.829346 L 76.3386 93.831146 L 76.3255 85.789497 L 77.263 85.787971 L 80.626366 91.428329 L 83.929665 85.777107 L 84.887993 85.775543 L 84.901093 93.817192 Z M 83.796921 93.818993"/>
                    </g>
                </g>
            </g>
            <g id="g26">
                <g id="g27">
                    <g id="g28">
                        <path id="path8" fill="#b4a188" stroke="none" d="M 101.646828 91.769081 L 97.376007 91.776039 L 96.483475 93.798325 L 95.295975 93.800255 L 98.928696 85.75267 L 100.074524 85.750809 L 103.754288 93.786476 L 102.545967 93.788445 Z M 101.249512 90.853058 L 99.493095 86.918411 L 97.77034 90.858719 Z M 101.249512 90.853058"/>
                    </g>
                </g>
            </g>
            <g id="g29">
                <g id="g30">
                    <g id="g31">
                        <path id="path9" fill="#b4a188" stroke="none" d="M 114.133537 85.727898 L 115.279366 85.726028 L 115.292465 93.767677 L 114.146645 93.769547 Z M 114.133537 85.727898"/>
                    </g>
                </g>
            </g>
            <g id="g32">
                <g id="g33">
                    <g id="g34">
                        <path id="path10" fill="#b4a188" stroke="none" d="M 129.268463 93.828255 C 128.653885 93.829254 128.065201 93.741669 127.497192 93.560295 C 126.939583 93.3685 126.501686 93.124413 126.18351 92.833275 L 126.598701 91.936752 C 126.901253 92.217514 127.292236 92.435623 127.766464 92.601524 C 128.251114 92.76741 128.751236 92.849922 129.266861 92.849083 C 129.933533 92.847992 130.422943 92.737823 130.745499 92.513344 C 131.078461 92.294052 131.244644 91.991684 131.244034 91.616684 C 131.243576 91.340652 131.149475 91.116837 130.972107 90.95047 C 130.789536 90.773689 130.565338 90.638634 130.30481 90.555717 C 130.039032 90.462402 129.663864 90.358856 129.179291 90.245049 C 128.580078 90.094994 128.095474 89.949936 127.720238 89.809929 C 127.344994 89.659508 127.021729 89.436066 126.760826 89.144829 C 126.494713 88.84317 126.363838 88.431931 126.362999 87.916306 C 126.362305 87.489227 126.471039 87.098427 126.694427 86.749092 C 126.928238 86.404976 127.276733 86.123146 127.734741 85.91407 C 128.192719 85.704994 128.760254 85.599899 129.442551 85.598785 C 129.911301 85.598022 130.380157 85.65976 130.838684 85.784012 C 131.297226 85.908264 131.693344 86.084702 132.027039 86.302902 L 131.653564 87.241013 C 131.31987 87.022827 130.955032 86.856743 130.569427 86.742783 C 130.178619 86.634056 129.803528 86.57737 129.444153 86.577957 C 128.787903 86.579025 128.298523 86.699615 127.965553 86.934525 C 127.643044 87.174644 127.487282 87.476974 127.487892 87.851974 C 127.48835 88.133224 127.577255 88.362251 127.759842 88.539032 C 127.95282 88.705391 128.182205 88.840424 128.447983 88.933739 C 128.724197 89.032257 129.094147 89.135811 129.552673 89.244438 C 130.162262 89.384071 130.646881 89.529129 131.011703 89.679565 C 131.386932 89.81958 131.705002 90.04303 131.971115 90.344673 C 132.23201 90.635918 132.368103 91.041946 132.368927 91.552353 C 132.369614 91.969025 132.250443 92.354645 132.016632 92.698776 C 131.793243 93.048088 131.444717 93.324707 130.976318 93.533798 C 130.518311 93.732468 129.945541 93.827148 129.268463 93.828255 Z M 129.268463 93.828255"/>
                    </g>
                </g>
            </g>
            <g id="g35">
                <g id="g36">
                    <g id="g37">
                        <path id="path11" fill="#b4a188" stroke="none" d="M 146.884033 93.799553 C 146.076752 93.800865 145.347305 93.63018 144.695694 93.282272 C 144.038864 92.923965 143.527649 92.430023 143.151627 91.805634 C 142.775604 91.181244 142.586975 90.483627 142.585709 89.702377 C 142.584442 88.926331 142.770798 88.2229 143.144775 87.59729 C 143.518753 86.97168 144.028366 86.481277 144.684021 86.115631 C 145.334473 85.755188 146.063354 85.571709 146.870636 85.570389 C 147.672729 85.569084 148.402176 85.750198 149.059006 86.108498 C 149.710648 86.472015 150.216644 86.96077 150.58226 87.585175 C 150.958267 88.199158 151.146896 88.896759 151.148193 89.688431 C 151.14946 90.469681 150.963104 91.167908 150.589127 91.79351 C 150.22554 92.419106 149.721146 92.914711 149.070694 93.275146 C 148.415009 93.625183 147.686127 93.798248 146.884033 93.799553 Z M 146.88237 92.778709 C 147.47612 92.77774 148.012375 92.646667 148.485901 92.380272 C 148.954224 92.119102 149.323425 91.748703 149.588272 91.2743 C 149.863541 90.805099 150.003296 90.273621 150.00235 89.690292 C 150.001404 89.106964 149.859909 88.581154 149.583115 88.107651 C 149.316727 87.639328 148.94632 87.270142 148.477142 87.00528 C 148.002747 86.730019 147.466049 86.590256 146.872299 86.591217 C 146.288971 86.592171 145.752747 86.733681 145.268814 87.010506 C 144.795288 87.276901 144.420883 87.647308 144.145615 88.116508 C 143.880768 88.590889 143.751404 89.117149 143.75235 89.700478 C 143.753311 90.283806 143.884384 90.814842 144.150772 91.283157 C 144.427582 91.756676 144.803192 92.125862 145.277573 92.385498 C 145.76239 92.65033 146.299042 92.779663 146.88237 92.778709 Z M 146.88237 92.778709"/>
                    </g>
                </g>
            </g>
            <g id="g38">
                <g id="g39">
                    <g id="g40">
                        <path id="path12" fill="#b4a188" stroke="none" d="M 169.026245 85.638466 L 169.039352 93.680115 L 168.101852 93.681641 L 163.258728 87.689522 L 163.268509 93.689514 L 162.122681 93.691383 L 162.109589 85.649734 L 163.047073 85.648209 L 167.890182 91.640327 L 167.880402 85.640335 Z M 169.026245 85.638466"/>
                    </g>
                </g>
            </g>
            <g id="g41">
                <g id="g42">
                    <g id="g43"/>
                </g>
            </g>
            <g id="g44">
                <g id="g45">
                    <g id="g46">
                        <path id="path13" fill="#b4a188" stroke="none" d="M 195.314606 93.72065 C 194.700012 93.721649 194.111343 93.634064 193.54332 93.45269 C 192.985733 93.260895 192.547836 93.016815 192.229645 92.725677 L 192.644852 91.829155 C 192.947388 92.109909 193.338364 92.328026 193.812607 92.493919 C 194.297256 92.659805 194.797394 92.742317 195.313019 92.741478 C 195.979675 92.740395 196.469086 92.630219 196.791626 92.405739 C 197.124619 92.186447 197.290771 91.884087 197.290161 91.509087 C 197.289719 91.233055 197.195602 91.009239 197.01825 90.842873 C 196.835663 90.666092 196.611496 90.531029 196.350937 90.448112 C 196.085159 90.354797 195.709991 90.251251 195.225433 90.137444 C 194.626236 89.987389 194.141617 89.842339 193.766388 89.702324 C 193.391144 89.551903 193.067856 89.328461 192.806976 89.037231 C 192.540863 88.735565 192.409973 88.324326 192.409134 87.808701 C 192.408432 87.381622 192.517166 86.990822 192.74057 86.641487 C 192.97438 86.297371 193.322876 86.015541 193.780869 85.806465 C 194.238876 85.597389 194.806412 85.492294 195.488708 85.49118 C 195.957443 85.490417 196.4263 85.552155 196.884827 85.676407 C 197.343369 85.800659 197.739502 85.977097 198.073181 86.195297 L 197.699707 87.133408 C 197.366028 86.915222 197.00116 86.749146 196.61557 86.635178 C 196.224762 86.526451 195.84967 86.469772 195.490295 86.470352 C 194.834045 86.47142 194.34465 86.592018 194.011703 86.82692 C 193.689178 87.067039 193.533417 87.36937 193.534027 87.74437 C 193.534485 88.02562 193.623398 88.254646 193.805984 88.431427 C 193.998962 88.597786 194.228363 88.732819 194.494141 88.826134 C 194.770325 88.924652 195.140289 89.028206 195.598801 89.136833 C 196.208405 89.276466 196.693008 89.421524 197.057846 89.57196 C 197.433075 89.711975 197.751144 89.935425 198.017258 90.237068 C 198.278168 90.52832 198.41423 90.934341 198.415054 91.444748 C 198.415741 91.86142 198.296585 92.24704 198.062775 92.591171 C 197.839371 92.940491 197.490875 93.217102 197.022461 93.426193 C 196.564453 93.624863 195.991684 93.719543 195.314606 93.72065 Z M 195.314606 93.72065"/>
                    </g>
                </g>
            </g>
            <g id="g47">
                <g id="g48">
                    <g id="g49">
                        <path id="path14" fill="#b4a188" stroke="none" d="M 214.426758 91.585335 L 210.155914 91.592293 L 209.263397 93.614578 L 208.075897 93.616516 L 211.708603 85.568932 L 212.854446 85.567062 L 216.534195 93.602737 L 215.325897 93.604706 Z M 214.029419 90.669312 L 212.27301 86.734665 L 210.550262 90.67498 Z M 214.029419 90.669312"/>
                    </g>
                </g>
            </g>
            <g id="g50">
                <g id="g51">
                    <g id="g52">
                        <path id="path15" fill="#b4a188" stroke="none" d="M 233.830124 85.53289 L 233.843231 93.574532 L 232.905731 93.576065 L 228.062622 87.583946 L 228.072388 93.583939 L 226.926559 93.5858 L 226.913452 85.544159 L 227.850952 85.542633 L 232.694061 91.534744 L 232.68428 85.53476 Z M 233.830124 85.53289"/>
                    </g>
                </g>
            </g>
            <g id="g53">
                <g id="g54">
                    <g id="g55">
                        <path id="path16" fill="#b4a188" stroke="none" d="M 247.82254 93.635101 C 247.207977 93.636101 246.619263 93.548515 246.051285 93.367142 C 245.493652 93.175346 245.055756 92.931267 244.737595 92.640129 L 245.152786 91.743607 C 245.455338 92.024361 245.846329 92.242477 246.320526 92.408379 C 246.805176 92.574257 247.305313 92.656769 247.820938 92.65593 C 248.487625 92.654846 248.977005 92.54467 249.299576 92.32019 C 249.632538 92.100899 249.798737 91.798538 249.798126 91.423538 C 249.797668 91.147507 249.703552 90.923691 249.526184 90.757324 C 249.343628 90.580544 249.119431 90.445488 248.858887 90.362564 C 248.593109 90.269249 248.217941 90.165703 247.733383 90.051895 C 247.134171 89.90184 246.649551 89.75679 246.274323 89.616776 C 245.899078 89.466354 245.575806 89.242912 245.314896 88.951683 C 245.048782 88.650024 244.917923 88.238785 244.917084 87.72316 C 244.916397 87.296082 245.025131 86.905273 245.248505 86.555939 C 245.482315 86.211823 245.830826 85.929993 246.288818 85.720917 C 246.746796 85.511841 247.314346 85.406746 247.996628 85.40564 C 248.465378 85.404877 248.934235 85.466606 249.392776 85.590866 C 249.851318 85.715118 250.247421 85.891548 250.581116 86.109756 L 250.207642 87.047867 C 249.873947 86.829674 249.509109 86.663597 249.123489 86.549629 C 248.732697 86.440903 248.35759 86.384216 247.998215 86.384804 C 247.34198 86.38588 246.8526 86.50647 246.519638 86.741371 C 246.197128 86.981491 246.041367 87.283829 246.041977 87.658821 C 246.042435 87.940071 246.131348 88.169098 246.313919 88.345879 C 246.506912 88.512238 246.736282 88.64727 247.00206 88.740585 C 247.278275 88.839111 247.648239 88.942657 248.10675 89.051292 C 248.716354 89.190918 249.200974 89.335976 249.565781 89.486412 C 249.94101 89.626427 250.259094 89.849876 250.525208 90.15152 C 250.786087 90.442772 250.92218 90.848801 250.923019 91.359207 C 250.923691 91.775879 250.80452 92.161491 250.570694 92.505623 C 250.347336 92.854942 249.99881 93.131554 249.530396 93.340645 C 249.072372 93.539314 248.499634 93.634003 247.82254 93.635101 Z M 247.82254 93.635101"/>
                    </g>
                </g>
            </g>
            <g id="g56">
                <g id="g57">
                    <g id="g58">
                        <path id="path17" fill="#b4a188" stroke="none" d="M 266.934723 91.499786 L 262.663879 91.506744 L 261.771332 93.52903 L 260.583832 93.530968 L 264.216553 85.483383 L 265.362396 85.481514 L 269.042145 93.517189 L 267.833801 93.519157 Z M 266.537384 90.583763 L 264.780975 86.649124 L 263.058228 90.589432 Z M 266.537384 90.583763"/>
                    </g>
                </g>
            </g>
            <g id="g59">
                <g id="g60">
                    <g id="g61">
                        <path id="path18" fill="#b4a188" stroke="none" d="M 286.338043 85.447342 L 286.351166 93.488983 L 285.413666 93.490517 L 280.570587 87.498398 L 280.580353 93.49839 L 279.434509 93.500259 L 279.421417 85.458611 L 280.358917 85.457085 L 285.202026 91.449203 L 285.19223 85.449203 Z M 286.338043 85.447342"/>
                    </g>
                </g>
            </g>
            <g id="g62">
                <g id="g63">
                    <g id="g64">
                        <path id="path19" fill="#b4a188" stroke="none" d="M 304.879761 85.41713 L 304.892853 93.458778 L 303.955353 93.460304 L 299.112244 87.468185 L 299.122009 93.468178 L 297.976196 93.470047 L 297.963104 85.428406 L 298.900604 85.426872 L 303.743683 91.418991 L 303.733917 85.418999 Z M 304.879761 85.41713"/>
                    </g>
                </g>
            </g>
            <g id="g65">
                <g id="g66">
                    <g id="g67">
                        <path id="path20" fill="#b4a188" stroke="none" d="M 322.349579 92.430336 L 322.351196 93.430336 L 316.517883 93.439842 L 316.504791 85.398193 L 322.192291 85.388931 L 322.193909 86.388924 L 317.652222 86.396324 L 317.65625 88.854652 L 321.697906 88.848068 L 321.699524 89.82724 L 317.657837 89.833817 L 317.662079 92.437973 Z M 322.349579 92.430336"/>
                    </g>
                </g>
            </g>
        </g>
    </g>
    <g id="g68">
        <g id="g69">
            <g id="g70">
                <path id="path21" fill="#b4a188" stroke="none" d="M 104.598763 49.331032 C 104.235977 50.430576 103.62812 51.363865 102.769989 52.125671 C 101.922256 52.877052 100.918022 53.482861 99.752113 53.943092 C 98.586197 54.403336 97.341942 54.738689 96.024582 54.949165 C 94.701996 55.159664 93.389671 55.265957 92.087593 55.268078 C 91.473015 55.269081 90.884445 55.254414 90.316696 55.229309 C 89.118645 55.147915 87.878769 54.967655 86.586647 54.693714 C 85.294533 54.419769 84.085587 54.041538 82.959785 53.553791 C 81.844421 53.071232 80.905937 52.46859 80.144341 51.745876 C 79.377518 51.012749 78.902153 50.143726 78.723427 49.144016 C 78.05085 45.509686 81.961365 41.737686 90.455017 37.833214 C 90.814102 37.655556 91.163109 37.68103 91.496819 37.914864 C 91.79924 38.122696 91.940361 38.429764 91.914986 38.830841 C 91.858322 39.221558 91.650436 39.492737 91.291313 39.644356 C 88.735916 40.815193 86.732475 41.896584 85.275734 42.883331 C 83.819023 43.875286 82.757957 44.757233 82.092552 45.534351 C 81.427139 46.30106 81.016754 46.9632 80.866623 47.515522 C 80.71125 48.057449 80.665047 48.468979 80.722778 48.74493 C 80.849052 49.525974 81.350189 50.223068 82.226204 50.846642 C 83.11264 51.470196 84.274963 51.999554 85.707954 52.424313 C 87.135704 52.838646 88.729881 53.09647 90.480026 53.187366 C 91.730217 53.299908 93.011444 53.287415 94.33416 53.160259 C 95.651642 53.022694 96.896042 52.775867 98.062141 52.425014 C 99.22821 52.06374 100.21701 51.577751 101.038918 50.961834 C 101.855614 50.335503 102.401268 49.584614 102.681091 48.709156 C 103.137138 47.307365 103.166092 45.895863 102.778358 44.47982 C 102.401054 43.063759 101.732109 41.6586 100.771469 40.25391 C 99.821259 38.838799 98.704384 37.439575 97.410461 36.051071 C 96.116508 34.652115 94.791344 33.274086 93.445374 31.911682 C 91.969002 30.42971 90.544693 28.937248 89.167252 27.439491 C 87.800217 25.931274 86.64669 24.412338 85.701492 22.882629 C 84.75106 21.342491 84.154785 19.791397 83.902222 18.218864 C 83.660065 16.635948 83.938721 15.04174 84.727745 13.425858 C 85.667389 11.538918 87.274666 10.249832 89.554802 9.563835 C 91.829727 8.883034 94.636955 8.841988 97.971275 9.44593 C 99.789589 9.807564 101.649818 10.330566 103.55719 11.02018 C 105.459335 11.699364 107.278381 12.514114 109.019516 13.469627 C 110.771057 14.41468 112.345642 15.432961 113.75367 16.524414 C 115.172119 17.621048 116.304199 18.765045 117.155098 19.956383 C 118.016418 21.152885 118.502708 22.323967 118.619156 23.474815 C 118.661781 24.05809 118.569077 24.69886 118.351456 25.391937 C 118.144264 26.090179 117.676636 26.778442 116.958984 27.456711 C 116.251732 28.124519 115.174614 28.746056 113.732841 29.316124 C 109.843971 30.39537 105.906868 30.641373 101.921547 30.064522 C 101.655838 30.012894 101.44207 29.877808 101.27507 29.669762 C 101.108047 29.451286 101.034721 29.206596 101.065544 28.940918 C 101.117188 28.664803 101.252228 28.440613 101.460297 28.273621 C 101.67878 28.106606 101.923447 28.03849 102.189117 28.064087 C 105.841042 28.599823 109.444862 28.385612 113.00058 27.421471 C 115.540672 26.448578 116.746964 25.196617 116.619469 23.665573 C 116.534714 22.79071 116.106133 21.86953 115.344124 20.896828 C 114.592552 19.929306 113.580544 18.956985 112.31855 17.985069 C 111.051346 17.018379 109.617561 16.104065 108.022408 15.242065 C 106.422028 14.369675 104.728058 13.601616 102.935318 12.937851 C 101.152985 12.274094 99.370918 11.777 97.578705 11.446579 C 96.755539 11.296883 95.812645 11.178642 94.744804 11.097038 C 93.687355 11.005005 92.624893 11.02758 91.557411 11.164726 C 90.484718 11.307098 89.500854 11.621208 88.600601 12.107048 C 87.71077 12.598091 87.02446 13.328369 86.541664 14.297905 C 85.903168 15.606224 85.712601 16.913849 85.964722 18.215508 C 86.21685 19.522408 86.781517 20.854805 87.658737 22.212753 C 88.535957 23.57592 89.605881 24.938766 90.873741 26.311707 C 92.136391 27.674217 93.482407 29.067863 94.901405 30.492653 C 96.36216 31.979836 97.781273 33.477524 99.15873 34.985718 C 100.546577 36.483459 101.747002 38.017944 102.749557 39.58403 C 103.762512 41.139664 104.462997 42.72187 104.840622 44.330631 C 105.218246 45.944595 105.137634 47.611401 104.598763 49.331032 Z M 104.598763 49.331032"/>
            </g>
        </g>
    </g>
    <g id="g71">
        <g id="g72">
            <g id="g73">
                <path id="path22" fill="#b4a188" stroke="none" d="M 148.250229 45.301567 C 148.427658 45.509621 148.521805 45.75425 148.522247 46.030296 C 148.491455 46.311596 148.377258 46.540955 148.16922 46.718372 C 148.09642 46.801819 147.72197 47.130554 147.045807 47.699375 C 146.364426 48.257767 145.469681 48.925896 144.361572 49.703751 C 143.24823 50.471191 141.994247 51.223236 140.594406 51.959892 C 139.204956 52.686108 137.731949 53.266636 136.180573 53.696239 C 134.639603 54.13105 133.087784 54.300247 131.535538 54.203808 C 129.993729 54.112572 128.513733 53.599358 127.095535 52.669384 C 126.0215 51.978416 125.165871 51.083981 124.528664 49.986061 C 124.345886 49.684265 124.059151 49.518078 123.673691 49.487453 C 123.309059 49.462002 123.033257 49.603077 122.841026 49.905468 C 122.269508 50.755371 121.656227 51.563652 120.990814 52.325157 C 120.325363 53.076244 119.644051 53.681526 118.952095 54.140984 C 118.270546 54.600422 117.609482 54.841091 116.974113 54.873379 L 116.932457 54.873444 C 116.474068 54.842941 116.051949 54.697784 115.660904 54.438015 C 115.259445 54.178249 114.967201 53.824551 114.784172 53.376942 C 114.00502 51.461536 114.111359 49.596783 115.108383 47.772236 C 115.954468 46.010433 117.129105 44.508518 118.642708 43.266472 C 120.166718 42.013988 121.894493 41.156998 123.826027 40.695522 C 124.200874 40.601162 124.51873 40.68919 124.784805 40.96479 C 125.061295 41.24559 125.150391 41.578789 125.057266 41.964348 C 124.917236 42.32917 124.662407 42.558743 124.28756 42.653103 C 122.673607 43.046356 121.22686 43.76226 119.93689 44.806038 C 118.657318 45.839375 117.669815 47.111813 116.963928 48.623386 C 116.241974 49.848518 116.113846 51.124775 116.574348 52.457352 C 116.72583 52.722733 116.845825 52.852741 116.929169 52.852604 C 117.14817 53.008499 117.491653 52.846485 117.949211 52.371784 C 118.417175 51.886646 118.947327 51.213909 119.529243 50.348366 C 120.121567 49.472397 120.703354 48.513123 121.274559 47.470516 C 121.856186 46.417492 122.375336 45.385395 122.832031 44.384647 C 123.024002 43.926006 123.377846 43.732712 123.893585 43.799591 C 124.37809 43.88213 124.665024 44.168114 124.749146 44.652351 C 124.749191 44.683601 124.796478 44.933525 124.896194 45.402115 C 125.00634 45.875904 125.18959 46.458935 125.44072 47.15123 C 125.691856 47.848743 126.036743 48.546104 126.485817 49.2537 C 126.945282 49.950874 127.519135 50.522846 128.217789 50.980053 C 129.385742 51.76981 130.657257 52.18441 132.032318 52.223839 C 133.407379 52.263256 134.782059 52.06311 136.156326 51.612949 C 137.541 51.152363 138.86821 50.5877 140.132751 49.918968 C 141.392059 49.239838 142.526321 48.534863 143.525146 47.809269 C 144.523972 47.08889 145.314651 46.483444 145.897186 45.992901 C 146.490143 45.507557 146.802231 45.251846 146.833435 45.220547 C 147.025879 45.053558 147.260132 44.98027 147.541397 44.990219 C 147.833054 44.989746 148.067596 45.093536 148.250229 45.301567 Z M 148.250229 45.301567"/>
            </g>
        </g>
    </g>
    <g id="g74">
        <g id="g75">
            <g id="g76">
                <path id="path23" fill="#b4a188" stroke="none" d="M 187.447754 45.008549 C 187.656387 45.190491 187.760941 45.424694 187.761414 45.716366 C 187.772293 45.997597 187.684128 46.232117 187.491745 46.425133 C 187.434586 46.508572 187.148605 46.800694 186.638992 47.301525 C 186.124191 47.802364 185.432465 48.407665 184.558624 49.117416 C 183.69516 49.816746 182.691101 50.516304 181.541214 51.226505 C 180.386093 51.926311 179.147476 52.516861 177.814941 53.00341 C 176.482407 53.495174 175.107864 53.778664 173.691345 53.8643 C 172.274811 53.949936 170.847321 53.69706 169.41925 53.10043 C 167.417618 52.103691 165.863159 50.63747 164.766235 48.691334 C 164.609634 48.483261 164.390381 48.165897 164.097992 47.734093 C 163.816055 47.307457 163.435516 47.104954 162.951187 47.13179 C 162.711609 47.132179 162.373184 47.205654 161.930695 47.341782 C 161.483002 47.483135 160.910553 47.770535 160.202927 48.198769 C 159.49527 48.616592 158.652603 49.279419 157.685318 50.182045 C 156.712799 51.074253 155.574127 52.268814 154.27449 53.770935 C 153.941803 54.162102 153.53569 54.24609 153.045731 54.022938 C 152.587021 53.789307 152.419739 53.414581 152.5439 52.89875 L 154.467651 44.458107 C 154.508896 44.197617 154.643982 43.989067 154.883301 43.832428 C 155.133057 43.680973 155.388199 43.644104 155.653961 43.727001 C 155.930069 43.768223 156.138641 43.913712 156.279663 44.163483 C 156.415482 44.402855 156.467972 44.652771 156.426743 44.913242 L 155.537064 48.706371 C 155.506027 48.831421 155.563492 48.935497 155.704254 49.018597 C 155.829346 49.075691 155.938675 49.049465 156.037445 48.934727 C 158.876831 46.253002 161.270584 44.967854 163.218689 45.08968 C 164.036499 45.145641 164.724548 45.477852 165.282822 46.086315 C 165.726273 46.543938 166.117722 47.043301 166.451935 47.584415 C 167.313889 49.166355 168.545044 50.383102 170.14537 51.224247 C 171.36496 51.737885 172.604874 51.944191 173.854706 51.843204 C 175.114944 51.731773 176.333221 51.443321 177.499146 50.983093 C 178.675476 50.522846 179.778748 49.968956 180.808929 49.311028 C 181.833908 48.658325 182.733902 48.011013 183.514099 47.369118 C 184.289093 46.71682 184.892365 46.174164 185.323944 45.741165 C 185.765961 45.313366 185.999954 45.083813 186.031158 45.052513 C 186.197495 44.843914 186.426498 44.739368 186.718155 44.738892 C 186.994202 44.738441 187.239151 44.831795 187.447754 45.008549 Z M 187.447754 45.008549"/>
            </g>
        </g>
    </g>
    <g id="g77">
        <g id="g78">
            <g id="g79">
                <path id="path24" fill="#b4a188" stroke="none" d="M 224.689148 45.177029 C 224.866547 45.385086 224.960693 45.629715 224.961136 45.905758 C 224.930344 46.187061 224.816162 46.41642 224.608109 46.593834 C 224.535339 46.677284 224.160873 47.00602 223.484711 47.574841 C 222.803329 48.133232 221.908569 48.801361 220.800461 49.579216 C 219.687119 50.346653 218.433151 51.098698 217.033295 51.835354 C 215.643845 52.561573 214.170853 53.142097 212.619461 53.571705 C 211.078506 54.006512 209.526688 54.175713 207.974442 54.079273 C 206.432632 53.988037 204.952637 53.474823 203.534439 52.544849 C 202.460403 51.853878 201.604782 50.959442 200.967575 49.861526 C 200.784775 49.559731 200.498062 49.393543 200.112579 49.362919 C 199.747971 49.337467 199.472153 49.478542 199.279938 49.780933 C 198.708405 50.630833 198.095139 51.439117 197.429703 52.200623 C 196.764267 52.951706 196.082962 53.556992 195.391006 54.016445 C 194.709457 54.475887 194.048401 54.716557 193.413025 54.74884 L 193.371353 54.748909 C 192.912979 54.718407 192.49086 54.57325 192.099808 54.31348 C 191.698349 54.053711 191.406113 53.700016 191.223083 53.252407 C 190.443909 51.337002 190.550247 49.472248 191.547287 47.647701 C 192.393387 45.885899 193.568008 44.383984 195.081619 43.141937 C 196.605621 41.88945 198.333389 41.032463 200.264938 40.570988 C 200.639786 40.476627 200.957626 40.564655 201.223709 40.840256 C 201.500214 41.121056 201.589294 41.454254 201.49617 41.839813 C 201.35614 42.204636 201.101303 42.434208 200.726456 42.528568 C 199.112518 42.921822 197.665756 43.637726 196.375793 44.681503 C 195.096222 45.714836 194.108704 46.987278 193.402847 48.498852 C 192.680878 49.72398 192.55275 51.00024 193.01326 52.332817 C 193.164719 52.598198 193.284729 52.728203 193.368057 52.728069 C 193.587067 52.883961 193.930557 52.721951 194.388123 52.24725 C 194.856079 51.762112 195.38623 51.089371 195.968155 50.223831 C 196.560486 49.347862 197.142242 48.388584 197.71347 47.345982 C 198.295074 46.292953 198.81424 45.260857 199.27095 44.260113 C 199.462906 43.801472 199.816757 43.608177 200.332489 43.675053 C 200.817001 43.757591 201.103928 44.043579 201.188049 44.527817 C 201.18811 44.559067 201.235382 44.80899 201.335098 45.27758 C 201.445251 45.751369 201.628494 46.3344 201.879623 47.026695 C 202.130768 47.724209 202.475647 48.42157 202.924713 49.129166 C 203.384186 49.82634 203.958023 50.398312 204.656693 50.855518 C 205.824661 51.645271 207.096146 52.059875 208.471207 52.099304 C 209.846283 52.138721 211.220947 51.938576 212.595215 51.488415 C 213.979904 51.027828 215.307114 50.463165 216.571655 49.794434 C 217.830963 49.115303 218.96521 48.410328 219.964035 47.684731 C 220.96286 46.964352 221.753571 46.35891 222.336075 45.868366 C 222.929031 45.383022 223.241119 45.127312 223.272324 45.096008 C 223.464767 44.929024 223.69902 44.855736 223.980286 44.865685 C 224.271942 44.865208 224.506485 44.968998 224.689148 45.177029 Z M 224.689148 45.177029"/>
            </g>
        </g>
    </g>
    <g id="g80">
        <g id="g81">
            <g id="g82">
                <path id="path25" fill="#b4a188" stroke="none" d="M 263.886658 44.88401 C 264.095306 45.065952 264.199829 45.300159 264.200317 45.591831 C 264.211212 45.873062 264.123016 46.107582 263.930664 46.300598 C 263.873474 46.384037 263.587524 46.676159 263.077881 47.176991 C 262.56308 47.67783 261.871368 48.283127 260.997528 48.992882 C 260.134064 49.692211 259.130005 50.391769 257.980133 51.101971 C 256.825012 51.801777 255.58638 52.392326 254.25386 52.878872 C 252.92131 53.37064 251.546768 53.654129 250.130249 53.739765 C 248.713699 53.825401 247.286224 53.572521 245.858154 52.975895 C 243.856537 51.979156 242.302048 50.512936 241.205124 48.566799 C 241.048538 48.358727 240.829269 48.041363 240.536911 47.609558 C 240.254959 47.182922 239.874405 46.980419 239.390076 47.007252 C 239.150513 47.007645 238.812073 47.081116 238.369614 47.217243 C 237.921906 47.358601 237.349457 47.646 236.641815 48.074234 C 235.934189 48.492058 235.091507 49.154884 234.124237 50.057507 C 233.151718 50.949718 232.013031 52.144279 230.713379 53.646397 C 230.380707 54.037567 229.974594 54.121555 229.484634 53.898399 C 229.025909 53.664772 228.858643 53.290043 228.982803 52.774216 L 230.906555 44.333572 C 230.947784 44.073082 231.082886 43.864532 231.322189 43.707893 C 231.571945 43.556438 231.827103 43.519569 232.092865 43.602467 C 232.368973 43.643688 232.577545 43.789177 232.718582 44.038948 C 232.85437 44.27832 232.906876 44.528233 232.865646 44.788708 L 231.975983 48.581833 C 231.944931 48.706886 232.00238 48.810963 232.143143 48.894062 C 232.268234 48.951157 232.377563 48.924931 232.476349 48.810192 C 235.315735 46.128468 237.709488 44.843315 239.657593 44.965141 C 240.475403 45.021107 241.163452 45.353313 241.721725 45.961781 C 242.165192 46.419403 242.556625 46.918766 242.890823 47.459877 C 243.752777 49.041821 244.983948 50.258564 246.584259 51.099709 C 247.803848 51.61335 249.043777 51.819656 250.29361 51.718666 C 251.553848 51.607239 252.772125 51.318787 253.938065 50.858555 C 255.11438 50.398312 256.217651 49.844421 257.247833 49.186489 C 258.272797 48.533787 259.172791 47.886478 259.953003 47.244579 C 260.727997 46.592285 261.331268 46.049629 261.762848 45.616631 C 262.204865 45.188831 262.438873 44.959278 262.470062 44.927979 C 262.636383 44.719376 262.865387 44.614834 263.157043 44.614357 C 263.433075 44.613907 263.67804 44.70726 263.886658 44.88401 Z M 263.886658 44.88401"/>
            </g>
        </g>
    </g>
    <g id="g83">
        <g id="g84">
            <g id="g85">
                <path id="path26" fill="#b4a188" stroke="none" d="M 302.585999 44.820961 C 302.794617 45.002903 302.89917 45.23711 302.899658 45.528782 C 302.910522 45.810013 302.822388 46.044533 302.629974 46.237549 C 302.572815 46.320988 302.286835 46.61311 301.777252 47.113941 C 301.262421 47.61478 300.570709 48.220078 299.696838 48.929832 C 298.833405 49.629162 297.829346 50.32872 296.679443 51.038921 C 295.524323 51.738728 294.285736 52.329277 292.953186 52.815823 C 291.620636 53.30759 290.246094 53.59108 288.829559 53.676716 C 287.413055 53.762352 285.985535 53.509472 284.557465 52.912846 C 282.555847 51.916107 281.001404 50.449886 279.90448 48.50375 C 279.747894 48.295677 279.528625 47.978313 279.236237 47.546509 C 278.954285 47.119873 278.573761 46.91737 278.089417 46.944202 C 277.849823 46.944595 277.511414 47.018066 277.068939 47.154194 C 276.621246 47.295551 276.048767 47.582951 275.341156 48.011181 C 274.633514 48.429008 273.790833 49.091835 272.823547 49.994457 C 271.851044 50.886669 270.712341 52.08123 269.41275 53.583347 C 269.080017 53.974518 268.67392 54.058506 268.18396 53.83535 C 267.72525 53.601723 267.557953 53.226994 267.682129 52.711166 L 269.605865 44.270523 C 269.647125 44.010033 269.782196 43.801483 270.021545 43.644844 C 270.271301 43.493389 270.526428 43.45652 270.792175 43.539417 C 271.068329 43.580639 271.276855 43.726128 271.417908 43.975899 C 271.553741 44.215271 271.606201 44.465183 271.564972 44.725658 L 270.675293 48.518784 C 270.644257 48.643837 270.701721 48.747913 270.842499 48.831013 C 270.96759 48.888107 271.076935 48.861881 271.175659 48.747143 C 274.015045 46.065418 276.408813 44.780266 278.356903 44.902092 C 279.174713 44.958057 279.862762 45.290264 280.421051 45.898731 C 280.864502 46.356354 281.255951 46.855717 281.590179 47.396828 C 282.452118 48.978771 283.683258 50.195515 285.2836 51.036659 C 286.503204 51.550301 287.743103 51.756607 288.99292 51.655617 C 290.253204 51.544189 291.471466 51.255737 292.63739 50.795506 C 293.813721 50.335262 294.916992 49.781372 295.947174 49.12344 C 296.972137 48.470737 297.872131 47.823429 298.652344 47.18153 C 299.427307 46.529236 300.030579 45.98658 300.462189 45.553581 C 300.904175 45.125782 301.138184 44.896229 301.169373 44.864925 C 301.335724 44.656326 301.564728 44.551785 301.856384 44.551308 C 302.132446 44.550858 302.37738 44.644207 302.585999 44.820961 Z M 302.585999 44.820961"/>
            </g>
        </g>
    </g>
    <g id="g86">
        <g id="g87">
            <g id="g88">
                <path id="path27" fill="#b4a188" stroke="none" d="M 339.930664 44.44762 C 340.108093 44.655659 340.186615 44.90033 340.161011 45.176403 C 340.130219 45.468124 340.005615 45.707905 339.78717 45.885357 C 339.688354 45.958424 339.23056 46.297714 338.413818 46.908424 C 337.591888 47.508717 336.488892 48.22406 335.104828 49.059643 C 333.731171 49.884804 332.133575 50.705112 330.317169 51.525791 C 328.495605 52.351665 326.548798 53.031933 324.46637 53.576984 C 322.394318 54.122032 320.264557 54.396328 318.071838 54.399902 C 315.457306 54.43021 312.951355 53.965542 310.548706 52.995499 C 309.214508 52.456001 308.276001 51.832531 307.733154 51.125084 C 307.190338 50.407219 306.887085 49.699368 306.813049 49.001583 C 306.728577 48.308998 306.743225 47.720444 306.851807 47.230671 C 307.074249 46.287605 307.515472 45.375431 308.180695 44.499348 C 308.845917 43.612839 309.620667 42.809498 310.510132 42.099705 C 311.410004 41.389912 312.325775 40.846745 313.257477 40.470226 C 314.199554 40.083286 315.053467 39.915222 315.819183 39.966057 C 316.511871 39.964928 317.111237 40.208744 317.612 40.692307 C 318.112823 41.181068 318.384644 41.784798 318.42746 42.503479 C 318.454163 42.909687 318.35083 43.415058 318.117432 44.024815 C 317.89444 44.624146 317.312134 45.229252 316.370392 45.840164 C 314.190338 47.208309 311.811096 47.805939 309.227478 47.643475 C 309.102478 47.633255 308.982727 47.659496 308.873474 47.727379 C 308.774628 47.810883 308.738373 47.9151 308.769806 48.040051 C 308.738922 48.264069 308.760223 48.555691 308.83374 48.914948 C 308.917633 49.279404 309.136993 49.654045 309.502228 50.038857 C 309.862213 50.413273 310.461761 50.766468 311.295624 51.098438 C 313.046844 51.845585 314.828796 52.274979 316.651886 52.381386 C 318.485382 52.477352 320.282043 52.354641 322.047119 52.018421 C 323.822632 51.682201 325.525024 51.215881 327.149048 50.614281 C 328.773041 50.002258 330.261536 49.338379 331.624969 48.627815 C 332.998779 47.906826 334.190399 47.222599 335.204987 46.580322 C 336.22998 45.94323 337.036377 45.40546 337.619019 44.972214 C 338.212036 44.528545 338.513763 44.304085 338.513763 44.304085 C 338.747864 44.126625 339.00293 44.048084 339.28421 44.073673 C 339.534271 44.104515 339.748016 44.229168 339.930664 44.44762 Z M 310.098694 45.308723 C 309.818054 45.699806 309.854889 45.913277 310.203918 45.95438 C 310.547729 45.985069 311.042358 45.906139 311.682709 45.722801 C 312.31778 45.52906 312.978851 45.283188 313.660675 44.990421 C 314.33728 44.687225 314.878479 44.40509 315.284302 44.15443 C 316.075104 43.611485 316.44931 43.126499 316.406921 42.694271 C 316.375214 42.402649 316.302002 42.215271 316.176849 42.132145 C 316.062134 42.049004 315.905792 41.997166 315.697418 41.966255 C 314.87442 41.915516 313.93219 42.198303 312.865479 42.825039 C 311.793579 43.451786 310.873077 44.281414 310.098694 45.308723 Z M 310.098694 45.308723"/>
            </g>
        </g>
    </g>
</svg>
