<svg xmlns="http://www.w3.org/2000/svg" xmlns:xlink="http://www.w3.org/1999/xlink" width="500" zoomAndPan="magnify" viewBox="0 0 375 374.999991" height="500" preserveAspectRatio="xMidYMid meet" version="1.0"><defs><g/><clipPath id="2108d7c421"><rect x="0" width="252" y="0" height="48"/></clipPath><clipPath id="919d90c1b6"><rect x="0" width="194" y="0" height="12"/></clipPath></defs><g transform="matrix(1, 0, 0, 1, 67, 169)"><g clip-path="url(#2108d7c421)"><g fill="#c8c5c5" fill-opacity="1"><g transform="translate(0.976118, 37.335549)"><g><path d="M 2 0 L 2 -0.671875 C 2.800781 -0.921875 3.320312 -1.453125 3.5625 -2.265625 C 3.800781 -3.078125 3.921875 -4.34375 3.921875 -6.0625 L 3.921875 -24.515625 C 3.921875 -26.453125 3.800781 -27.976562 3.5625 -29.09375 C 3.320312 -30.207031 2.960938 -31.035156 2.484375 -31.578125 C 2.003906 -32.117188 1.398438 -32.519531 0.671875 -32.78125 L 0.671875 -33.453125 L 7.84375 -33.453125 L 19.640625 -13.859375 L 30.859375 -33.453125 L 37.65625 -33.453125 L 37.65625 -32.78125 C 36.914062 -32.519531 36.304688 -32.117188 35.828125 -31.578125 C 35.359375 -31.035156 35.003906 -30.207031 34.765625 -29.09375 C 34.523438 -27.976562 34.40625 -26.453125 34.40625 -24.515625 L 34.40625 -6.0625 C 34.40625 -4.34375 34.523438 -3.078125 34.765625 -2.265625 C 35.003906 -1.453125 35.519531 -0.921875 36.3125 -0.671875 L 36.3125 0 L 27.421875 0 L 27.421875 -0.671875 C 28.222656 -0.921875 28.742188 -1.453125 28.984375 -2.265625 C 29.222656 -3.078125 29.34375 -4.34375 29.34375 -6.0625 L 29.34375 -29.1875 L 17.875 -9.078125 L 16.765625 -9.078125 L 4.78125 -28.765625 L 4.78125 -8.9375 C 4.78125 -6.988281 4.90625 -5.457031 5.15625 -4.34375 C 5.414062 -3.226562 5.816406 -2.398438 6.359375 -1.859375 C 6.898438 -1.316406 7.582031 -0.921875 8.40625 -0.671875 L 8.40625 0 Z M 2 0 "/></g></g></g><g fill="#c8c5c5" fill-opacity="1"><g transform="translate(52.433602, 37.335549)"><g><path d="M -1 0 L -1 -0.671875 C -0.269531 -0.921875 0.414062 -1.410156 1.0625 -2.140625 C 1.71875 -2.878906 2.367188 -4.046875 3.015625 -5.640625 L 11.9375 -27.8125 C 12.289062 -28.695312 12.257812 -29.554688 11.84375 -30.390625 L 11.234375 -31.734375 L 15.90625 -33.828125 L 27.765625 -5.59375 C 28.429688 -4.03125 29.070312 -2.878906 29.6875 -2.140625 C 30.3125 -1.410156 30.894531 -0.921875 31.4375 -0.671875 L 31.4375 0 L 22.75 0 L 22.75 -0.671875 C 23.539062 -0.921875 23.832031 -1.410156 23.625 -2.140625 C 23.414062 -2.878906 22.976562 -4.03125 22.3125 -5.59375 L 19.453125 -12.46875 L 6.6875 -12.46875 L 3.921875 -5.640625 C 3.285156 -4.046875 3.03125 -2.863281 3.15625 -2.09375 C 3.28125 -1.332031 3.742188 -0.859375 4.546875 -0.671875 L 4.546875 0 Z M 6.96875 -13.234375 L 19.109375 -13.234375 L 12.953125 -28 Z M 6.96875 -13.234375 "/></g></g></g><g fill="#c8c5c5" fill-opacity="1"><g transform="translate(94.718161, 37.335549)"><g><path d="M 2.25 0 L 2.25 -0.671875 C 3.039062 -0.921875 3.554688 -1.453125 3.796875 -2.265625 C 4.035156 -3.078125 4.15625 -4.34375 4.15625 -6.0625 L 4.15625 -27.375 C 4.15625 -29.09375 4.035156 -30.359375 3.796875 -31.171875 C 3.554688 -31.984375 3.039062 -32.519531 2.25 -32.78125 L 2.25 -33.453125 L 11.140625 -33.453125 L 11.140625 -32.78125 C 10.335938 -32.519531 9.816406 -31.984375 9.578125 -31.171875 C 9.335938 -30.359375 9.21875 -29.09375 9.21875 -27.375 L 9.21875 -6.0625 C 9.21875 -4.34375 9.335938 -3.078125 9.578125 -2.265625 C 9.816406 -1.453125 10.335938 -0.921875 11.140625 -0.671875 L 11.140625 0 Z M 2.25 0 "/></g></g></g><g fill="#c8c5c5" fill-opacity="1"><g transform="translate(119.660154, 37.335549)"><g><path d="M 13.671875 0.484375 C 11.210938 0.484375 8.929688 0.140625 6.828125 -0.546875 C 4.722656 -1.234375 3.066406 -2.023438 1.859375 -2.921875 L 1.671875 -10.078125 L 2.296875 -10.171875 C 2.960938 -8.359375 3.875 -6.726562 5.03125 -5.28125 C 6.195312 -3.832031 7.609375 -2.675781 9.265625 -1.8125 C 10.921875 -0.957031 12.800781 -0.53125 14.90625 -0.53125 C 16.019531 -0.53125 17.054688 -0.757812 18.015625 -1.21875 C 18.972656 -1.675781 19.753906 -2.351562 20.359375 -3.25 C 20.960938 -4.144531 21.265625 -5.242188 21.265625 -6.546875 C 21.265625 -7.722656 20.925781 -8.75 20.25 -9.625 C 19.582031 -10.5 18.734375 -11.265625 17.703125 -11.921875 C 16.671875 -12.578125 15.578125 -13.148438 14.421875 -13.640625 C 13.273438 -14.128906 12.226562 -14.566406 11.28125 -14.953125 C 9.65625 -15.648438 8.15625 -16.347656 6.78125 -17.046875 C 5.414062 -17.753906 4.316406 -18.65625 3.484375 -19.75 C 2.660156 -20.851562 2.25 -22.328125 2.25 -24.171875 C 2.25 -27.140625 3.351562 -29.484375 5.5625 -31.203125 C 7.78125 -32.921875 10.769531 -33.78125 14.53125 -33.78125 C 16.3125 -33.78125 17.972656 -33.601562 19.515625 -33.25 C 21.066406 -32.90625 22.460938 -32.414062 23.703125 -31.78125 L 23.890625 -25.5625 L 23.359375 -25.375 C 22.378906 -27.820312 20.941406 -29.695312 19.046875 -31 C 17.148438 -32.3125 15.035156 -32.96875 12.703125 -32.96875 C 10.796875 -32.96875 9.179688 -32.429688 7.859375 -31.359375 C 6.535156 -30.296875 5.875 -28.828125 5.875 -26.953125 C 5.875 -25.898438 6.132812 -24.984375 6.65625 -24.203125 C 7.1875 -23.421875 7.890625 -22.742188 8.765625 -22.171875 C 9.640625 -21.597656 10.578125 -21.09375 11.578125 -20.65625 C 12.585938 -20.226562 13.570312 -19.828125 14.53125 -19.453125 C 15.738281 -18.972656 16.96875 -18.460938 18.21875 -17.921875 C 19.476562 -17.378906 20.632812 -16.738281 21.6875 -16 C 22.738281 -15.269531 23.582031 -14.394531 24.21875 -13.375 C 24.863281 -12.351562 25.1875 -11.128906 25.1875 -9.703125 C 25.1875 -8.078125 24.847656 -6.625 24.171875 -5.34375 C 23.503906 -4.070312 22.613281 -3.003906 21.5 -2.140625 C 20.382812 -1.285156 19.140625 -0.632812 17.765625 -0.1875 C 16.398438 0.257812 15.035156 0.484375 13.671875 0.484375 Z M 13.671875 0.484375 "/></g></g></g><g fill="#c8c5c5" fill-opacity="1"><g transform="translate(157.644894, 37.335549)"><g><path d="M 19.6875 0.484375 C 17.644531 0.484375 15.617188 0.140625 13.609375 -0.546875 C 11.609375 -1.234375 9.769531 -2.285156 8.09375 -3.703125 C 6.425781 -5.117188 5.085938 -6.914062 4.078125 -9.09375 C 3.078125 -11.28125 2.578125 -13.867188 2.578125 -16.859375 C 2.578125 -19.222656 2.988281 -21.429688 3.8125 -23.484375 C 4.644531 -25.535156 5.816406 -27.332031 7.328125 -28.875 C 8.847656 -30.425781 10.65625 -31.640625 12.75 -32.515625 C 14.851562 -33.390625 17.164062 -33.828125 19.6875 -33.828125 C 21.695312 -33.828125 23.710938 -33.476562 25.734375 -32.78125 C 27.753906 -32.082031 29.59375 -31.019531 31.25 -29.59375 C 32.90625 -28.175781 34.234375 -26.382812 35.234375 -24.21875 C 36.242188 -22.050781 36.75 -19.503906 36.75 -16.578125 C 36.75 -13.679688 36.242188 -11.15625 35.234375 -9 C 34.234375 -6.851562 32.894531 -5.078125 31.21875 -3.671875 C 29.550781 -2.273438 27.710938 -1.234375 25.703125 -0.546875 C 23.703125 0.140625 21.695312 0.484375 19.6875 0.484375 Z M 7.546875 -19.78125 C 7.703125 -17.394531 8.1875 -15.078125 9 -12.828125 C 9.8125 -10.578125 10.867188 -8.566406 12.171875 -6.796875 C 13.484375 -5.035156 15.003906 -3.628906 16.734375 -2.578125 C 18.472656 -1.523438 20.363281 -1 22.40625 -1 C 24.863281 -1 26.804688 -1.546875 28.234375 -2.640625 C 29.671875 -3.742188 30.679688 -5.1875 31.265625 -6.96875 C 31.859375 -8.757812 32.078125 -10.707031 31.921875 -12.8125 C 31.722656 -15.351562 31.242188 -17.800781 30.484375 -20.15625 C 29.722656 -22.519531 28.695312 -24.640625 27.40625 -26.515625 C 26.113281 -28.398438 24.609375 -29.882812 22.890625 -30.96875 C 21.171875 -32.050781 19.273438 -32.59375 17.203125 -32.59375 C 15.035156 -32.59375 13.203125 -32.066406 11.703125 -31.015625 C 10.203125 -29.960938 9.09375 -28.472656 8.375 -26.546875 C 7.664062 -24.617188 7.390625 -22.363281 7.546875 -19.78125 Z M 7.546875 -19.78125 "/></g></g></g><g fill="#c8c5c5" fill-opacity="1"><g transform="translate(208.38573, 37.335549)"><g><path d="M 27.421875 0.375 L 5.015625 -27.90625 L 5.015625 -8.9375 C 5.015625 -6.988281 5.140625 -5.457031 5.390625 -4.34375 C 5.648438 -3.226562 6.050781 -2.398438 6.59375 -1.859375 C 7.132812 -1.316406 7.816406 -0.921875 8.640625 -0.671875 L 8.640625 0 L 2.25 0 L 2.25 -0.671875 C 3.039062 -0.921875 3.554688 -1.453125 3.796875 -2.265625 C 4.035156 -3.078125 4.15625 -4.34375 4.15625 -6.0625 L 4.15625 -27.375 C 4.15625 -29.09375 3.992188 -30.359375 3.671875 -31.171875 C 3.359375 -31.984375 2.691406 -32.519531 1.671875 -32.78125 L 1.671875 -33.453125 L 7.078125 -33.453125 L 27.140625 -8.3125 L 27.140625 -24.515625 C 27.140625 -26.453125 27.007812 -27.976562 26.75 -29.09375 C 26.5 -30.207031 26.101562 -31.035156 25.5625 -31.578125 C 25.019531 -32.117188 24.335938 -32.519531 23.515625 -32.78125 L 23.515625 -33.453125 L 29.953125 -33.453125 L 29.953125 -32.78125 C 29.160156 -32.519531 28.644531 -31.984375 28.40625 -31.171875 C 28.164062 -30.359375 28.046875 -29.09375 28.046875 -27.375 L 28.046875 0.375 Z M 27.421875 0.375 "/></g></g></g></g></g><g transform="matrix(1, 0, 0, 1, 94, 217)"><g clip-path="url(#919d90c1b6)"><g fill="#b4a188" fill-opacity="1"><g transform="translate(0.534488, 8.475869)"><g><path d="M 6.5 0 L 6.5 -4.40625 L 4.3125 -0.734375 L 3.921875 -0.734375 L 1.734375 -4.375 L 1.734375 0 L 0.90625 0 L 0.90625 -6.03125 L 1.609375 -6.03125 L 4.125 -1.796875 L 6.609375 -6.03125 L 7.328125 -6.03125 L 7.328125 0 Z M 6.5 0 "/></g></g></g><g fill="#b4a188" fill-opacity="1"><g transform="translate(15.674407, 8.475869)"><g><path d="M 4.75 -1.515625 L 1.546875 -1.515625 L 0.875 0 L -0.015625 0 L 2.71875 -6.03125 L 3.578125 -6.03125 L 6.328125 0 L 5.421875 0 Z M 4.453125 -2.203125 L 3.140625 -5.15625 L 1.84375 -2.203125 Z M 4.453125 -2.203125 "/></g></g></g><g fill="#b4a188" fill-opacity="1"><g transform="translate(28.890552, 8.475869)"><g><path d="M 0.90625 -6.03125 L 1.765625 -6.03125 L 1.765625 0 L 0.90625 0 Z M 0.90625 -6.03125 "/></g></g></g><g fill="#b4a188" fill-opacity="1"><g transform="translate(38.466209, 8.475869)"><g><path d="M 2.671875 0.0625 C 2.210938 0.0625 1.769531 -0.00390625 1.34375 -0.140625 C 0.925781 -0.285156 0.597656 -0.46875 0.359375 -0.6875 L 0.671875 -1.359375 C 0.898438 -1.148438 1.191406 -0.984375 1.546875 -0.859375 C 1.910156 -0.734375 2.285156 -0.671875 2.671875 -0.671875 C 3.171875 -0.671875 3.539062 -0.753906 3.78125 -0.921875 C 4.03125 -1.085938 4.15625 -1.3125 4.15625 -1.59375 C 4.15625 -1.800781 4.085938 -1.96875 3.953125 -2.09375 C 3.816406 -2.226562 3.648438 -2.328125 3.453125 -2.390625 C 3.253906 -2.460938 2.972656 -2.539062 2.609375 -2.625 C 2.160156 -2.738281 1.796875 -2.847656 1.515625 -2.953125 C 1.234375 -3.066406 0.992188 -3.234375 0.796875 -3.453125 C 0.597656 -3.679688 0.5 -3.988281 0.5 -4.375 C 0.5 -4.695312 0.582031 -4.988281 0.75 -5.25 C 0.925781 -5.507812 1.1875 -5.71875 1.53125 -5.875 C 1.875 -6.03125 2.300781 -6.109375 2.8125 -6.109375 C 3.164062 -6.109375 3.515625 -6.0625 3.859375 -5.96875 C 4.203125 -5.875 4.5 -5.742188 4.75 -5.578125 L 4.46875 -4.875 C 4.21875 -5.039062 3.945312 -5.164062 3.65625 -5.25 C 3.363281 -5.332031 3.082031 -5.375 2.8125 -5.375 C 2.320312 -5.375 1.953125 -5.285156 1.703125 -5.109375 C 1.460938 -4.929688 1.34375 -4.703125 1.34375 -4.421875 C 1.34375 -4.210938 1.410156 -4.039062 1.546875 -3.90625 C 1.691406 -3.78125 1.863281 -3.679688 2.0625 -3.609375 C 2.269531 -3.535156 2.546875 -3.457031 2.890625 -3.375 C 3.347656 -3.269531 3.710938 -3.160156 3.984375 -3.046875 C 4.265625 -2.941406 4.503906 -2.773438 4.703125 -2.546875 C 4.898438 -2.328125 5 -2.023438 5 -1.640625 C 5 -1.328125 4.910156 -1.039062 4.734375 -0.78125 C 4.566406 -0.519531 4.304688 -0.3125 3.953125 -0.15625 C 3.609375 -0.0078125 3.179688 0.0625 2.671875 0.0625 Z M 2.671875 0.0625 "/></g></g></g><g fill="#b4a188" fill-opacity="1"><g transform="translate(50.72479, 8.475869)"><g><path d="M 3.625 0.0625 C 3.019531 0.0625 2.472656 -0.0664062 1.984375 -0.328125 C 1.492188 -0.597656 1.109375 -0.96875 0.828125 -1.4375 C 0.546875 -1.90625 0.40625 -2.429688 0.40625 -3.015625 C 0.40625 -3.597656 0.546875 -4.125 0.828125 -4.59375 C 1.109375 -5.0625 1.492188 -5.429688 1.984375 -5.703125 C 2.472656 -5.972656 3.019531 -6.109375 3.625 -6.109375 C 4.226562 -6.109375 4.773438 -5.972656 5.265625 -5.703125 C 5.753906 -5.429688 6.132812 -5.0625 6.40625 -4.59375 C 6.6875 -4.132812 6.828125 -3.609375 6.828125 -3.015625 C 6.828125 -2.429688 6.6875 -1.90625 6.40625 -1.4375 C 6.132812 -0.96875 5.753906 -0.597656 5.265625 -0.328125 C 4.773438 -0.0664062 4.226562 0.0625 3.625 0.0625 Z M 3.625 -0.703125 C 4.070312 -0.703125 4.472656 -0.800781 4.828125 -1 C 5.179688 -1.195312 5.457031 -1.472656 5.65625 -1.828125 C 5.863281 -2.179688 5.96875 -2.578125 5.96875 -3.015625 C 5.96875 -3.453125 5.863281 -3.847656 5.65625 -4.203125 C 5.457031 -4.554688 5.179688 -4.832031 4.828125 -5.03125 C 4.472656 -5.238281 4.070312 -5.34375 3.625 -5.34375 C 3.1875 -5.34375 2.785156 -5.238281 2.421875 -5.03125 C 2.066406 -4.832031 1.785156 -4.554688 1.578125 -4.203125 C 1.378906 -3.847656 1.28125 -3.453125 1.28125 -3.015625 C 1.28125 -2.578125 1.378906 -2.179688 1.578125 -1.828125 C 1.785156 -1.472656 2.066406 -1.195312 2.421875 -1 C 2.785156 -0.800781 3.1875 -0.703125 3.625 -0.703125 Z M 3.625 -0.703125 "/></g></g></g><g fill="#b4a188" fill-opacity="1"><g transform="translate(64.872634, 8.475869)"><g><path d="M 6.09375 -6.03125 L 6.09375 0 L 5.390625 0 L 1.765625 -4.5 L 1.765625 0 L 0.90625 0 L 0.90625 -6.03125 L 1.609375 -6.03125 L 5.234375 -1.53125 L 5.234375 -6.03125 Z M 6.09375 -6.03125 "/></g></g></g><g fill="#b4a188" fill-opacity="1"><g transform="translate(78.77892, 8.475869)"><g/></g></g><g fill="#b4a188" fill-opacity="1"><g transform="translate(88.00088, 8.475869)"><g><path d="M 2.671875 0.0625 C 2.210938 0.0625 1.769531 -0.00390625 1.34375 -0.140625 C 0.925781 -0.285156 0.597656 -0.46875 0.359375 -0.6875 L 0.671875 -1.359375 C 0.898438 -1.148438 1.191406 -0.984375 1.546875 -0.859375 C 1.910156 -0.734375 2.285156 -0.671875 2.671875 -0.671875 C 3.171875 -0.671875 3.539062 -0.753906 3.78125 -0.921875 C 4.03125 -1.085938 4.15625 -1.3125 4.15625 -1.59375 C 4.15625 -1.800781 4.085938 -1.96875 3.953125 -2.09375 C 3.816406 -2.226562 3.648438 -2.328125 3.453125 -2.390625 C 3.253906 -2.460938 2.972656 -2.539062 2.609375 -2.625 C 2.160156 -2.738281 1.796875 -2.847656 1.515625 -2.953125 C 1.234375 -3.066406 0.992188 -3.234375 0.796875 -3.453125 C 0.597656 -3.679688 0.5 -3.988281 0.5 -4.375 C 0.5 -4.695312 0.582031 -4.988281 0.75 -5.25 C 0.925781 -5.507812 1.1875 -5.71875 1.53125 -5.875 C 1.875 -6.03125 2.300781 -6.109375 2.8125 -6.109375 C 3.164062 -6.109375 3.515625 -6.0625 3.859375 -5.96875 C 4.203125 -5.875 4.5 -5.742188 4.75 -5.578125 L 4.46875 -4.875 C 4.21875 -5.039062 3.945312 -5.164062 3.65625 -5.25 C 3.363281 -5.332031 3.082031 -5.375 2.8125 -5.375 C 2.320312 -5.375 1.953125 -5.285156 1.703125 -5.109375 C 1.460938 -4.929688 1.34375 -4.703125 1.34375 -4.421875 C 1.34375 -4.210938 1.410156 -4.039062 1.546875 -3.90625 C 1.691406 -3.78125 1.863281 -3.679688 2.0625 -3.609375 C 2.269531 -3.535156 2.546875 -3.457031 2.890625 -3.375 C 3.347656 -3.269531 3.710938 -3.160156 3.984375 -3.046875 C 4.265625 -2.941406 4.503906 -2.773438 4.703125 -2.546875 C 4.898438 -2.328125 5 -2.023438 5 -1.640625 C 5 -1.328125 4.910156 -1.039062 4.734375 -0.78125 C 4.566406 -0.519531 4.304688 -0.3125 3.953125 -0.15625 C 3.609375 -0.0078125 3.179688 0.0625 2.671875 0.0625 Z M 2.671875 0.0625 "/></g></g></g><g fill="#b4a188" fill-opacity="1"><g transform="translate(100.259461, 8.475869)"><g><path d="M 4.75 -1.515625 L 1.546875 -1.515625 L 0.875 0 L -0.015625 0 L 2.71875 -6.03125 L 3.578125 -6.03125 L 6.328125 0 L 5.421875 0 Z M 4.453125 -2.203125 L 3.140625 -5.15625 L 1.84375 -2.203125 Z M 4.453125 -2.203125 "/></g></g></g><g fill="#b4a188" fill-opacity="1"><g transform="translate(113.475606, 8.475869)"><g><path d="M 6.09375 -6.03125 L 6.09375 0 L 5.390625 0 L 1.765625 -4.5 L 1.765625 0 L 0.90625 0 L 0.90625 -6.03125 L 1.609375 -6.03125 L 5.234375 -1.53125 L 5.234375 -6.03125 Z M 6.09375 -6.03125 "/></g></g></g><g fill="#b4a188" fill-opacity="1"><g transform="translate(127.381892, 8.475869)"><g><path d="M 2.671875 0.0625 C 2.210938 0.0625 1.769531 -0.00390625 1.34375 -0.140625 C 0.925781 -0.285156 0.597656 -0.46875 0.359375 -0.6875 L 0.671875 -1.359375 C 0.898438 -1.148438 1.191406 -0.984375 1.546875 -0.859375 C 1.910156 -0.734375 2.285156 -0.671875 2.671875 -0.671875 C 3.171875 -0.671875 3.539062 -0.753906 3.78125 -0.921875 C 4.03125 -1.085938 4.15625 -1.3125 4.15625 -1.59375 C 4.15625 -1.800781 4.085938 -1.96875 3.953125 -2.09375 C 3.816406 -2.226562 3.648438 -2.328125 3.453125 -2.390625 C 3.253906 -2.460938 2.972656 -2.539062 2.609375 -2.625 C 2.160156 -2.738281 1.796875 -2.847656 1.515625 -2.953125 C 1.234375 -3.066406 0.992188 -3.234375 0.796875 -3.453125 C 0.597656 -3.679688 0.5 -3.988281 0.5 -4.375 C 0.5 -4.695312 0.582031 -4.988281 0.75 -5.25 C 0.925781 -5.507812 1.1875 -5.71875 1.53125 -5.875 C 1.875 -6.03125 2.300781 -6.109375 2.8125 -6.109375 C 3.164062 -6.109375 3.515625 -6.0625 3.859375 -5.96875 C 4.203125 -5.875 4.5 -5.742188 4.75 -5.578125 L 4.46875 -4.875 C 4.21875 -5.039062 3.945312 -5.164062 3.65625 -5.25 C 3.363281 -5.332031 3.082031 -5.375 2.8125 -5.375 C 2.320312 -5.375 1.953125 -5.285156 1.703125 -5.109375 C 1.460938 -4.929688 1.34375 -4.703125 1.34375 -4.421875 C 1.34375 -4.210938 1.410156 -4.039062 1.546875 -3.90625 C 1.691406 -3.78125 1.863281 -3.679688 2.0625 -3.609375 C 2.269531 -3.535156 2.546875 -3.457031 2.890625 -3.375 C 3.347656 -3.269531 3.710938 -3.160156 3.984375 -3.046875 C 4.265625 -2.941406 4.503906 -2.773438 4.703125 -2.546875 C 4.898438 -2.328125 5 -2.023438 5 -1.640625 C 5 -1.328125 4.910156 -1.039062 4.734375 -0.78125 C 4.566406 -0.519531 4.304688 -0.3125 3.953125 -0.15625 C 3.609375 -0.0078125 3.179688 0.0625 2.671875 0.0625 Z M 2.671875 0.0625 "/></g></g></g><g fill="#b4a188" fill-opacity="1"><g transform="translate(139.640473, 8.475869)"><g><path d="M 4.75 -1.515625 L 1.546875 -1.515625 L 0.875 0 L -0.015625 0 L 2.71875 -6.03125 L 3.578125 -6.03125 L 6.328125 0 L 5.421875 0 Z M 4.453125 -2.203125 L 3.140625 -5.15625 L 1.84375 -2.203125 Z M 4.453125 -2.203125 "/></g></g></g><g fill="#b4a188" fill-opacity="1"><g transform="translate(152.856618, 8.475869)"><g><path d="M 6.09375 -6.03125 L 6.09375 0 L 5.390625 0 L 1.765625 -4.5 L 1.765625 0 L 0.90625 0 L 0.90625 -6.03125 L 1.609375 -6.03125 L 5.234375 -1.53125 L 5.234375 -6.03125 Z M 6.09375 -6.03125 "/></g></g></g><g fill="#b4a188" fill-opacity="1"><g transform="translate(166.762904, 8.475869)"><g><path d="M 6.09375 -6.03125 L 6.09375 0 L 5.390625 0 L 1.765625 -4.5 L 1.765625 0 L 0.90625 0 L 0.90625 -6.03125 L 1.609375 -6.03125 L 5.234375 -1.53125 L 5.234375 -6.03125 Z M 6.09375 -6.03125 "/></g></g></g><g fill="#b4a188" fill-opacity="1"><g transform="translate(180.66919, 8.475869)"><g><path d="M 5.28125 -0.75 L 5.28125 0 L 0.90625 0 L 0.90625 -6.03125 L 5.171875 -6.03125 L 5.171875 -5.28125 L 1.765625 -5.28125 L 1.765625 -3.4375 L 4.796875 -3.4375 L 4.796875 -2.703125 L 1.765625 -2.703125 L 1.765625 -0.75 Z M 5.28125 -0.75 "/></g></g></g></g></g><g fill="#b4a188" fill-opacity="1"><g transform="translate(95.783963, 196.166603)"><g><path d="M 20.90625 -4.03125 C 20.632812 -3.207031 20.175781 -2.507812 19.53125 -1.9375 C 18.894531 -1.375 18.140625 -0.921875 17.265625 -0.578125 C 16.390625 -0.234375 15.457031 0.015625 14.46875 0.171875 C 13.476562 0.328125 12.492188 0.40625 11.515625 0.40625 C 11.054688 0.40625 10.613281 0.394531 10.1875 0.375 C 9.289062 0.3125 8.359375 0.175781 7.390625 -0.03125 C 6.421875 -0.238281 5.515625 -0.523438 4.671875 -0.890625 C 3.835938 -1.253906 3.132812 -1.707031 2.5625 -2.25 C 1.988281 -2.800781 1.632812 -3.453125 1.5 -4.203125 C 1 -6.929688 3.9375 -9.753906 10.3125 -12.671875 C 10.582031 -12.804688 10.84375 -12.785156 11.09375 -12.609375 C 11.320312 -12.453125 11.425781 -12.222656 11.40625 -11.921875 C 11.363281 -11.628906 11.207031 -11.425781 10.9375 -11.3125 C 9.019531 -10.4375 7.515625 -9.628906 6.421875 -8.890625 C 5.328125 -8.148438 4.53125 -7.488281 4.03125 -6.90625 C 3.53125 -6.332031 3.222656 -5.835938 3.109375 -5.421875 C 2.992188 -5.015625 2.957031 -4.707031 3 -4.5 C 3.09375 -3.914062 3.46875 -3.390625 4.125 -2.921875 C 4.789062 -2.453125 5.660156 -2.054688 6.734375 -1.734375 C 7.804688 -1.421875 9 -1.226562 10.3125 -1.15625 C 11.25 -1.070312 12.210938 -1.078125 13.203125 -1.171875 C 14.191406 -1.273438 15.125 -1.457031 16 -1.71875 C 16.875 -1.988281 17.617188 -2.351562 18.234375 -2.8125 C 18.847656 -3.28125 19.257812 -3.84375 19.46875 -4.5 C 19.8125 -5.550781 19.835938 -6.609375 19.546875 -7.671875 C 19.265625 -8.734375 18.765625 -9.789062 18.046875 -10.84375 C 17.335938 -11.90625 16.5 -12.957031 15.53125 -14 C 14.5625 -15.050781 13.570312 -16.085938 12.5625 -17.109375 C 11.457031 -18.222656 10.390625 -19.34375 9.359375 -20.46875 C 8.335938 -21.601562 7.472656 -22.742188 6.765625 -23.890625 C 6.054688 -25.046875 5.609375 -26.210938 5.421875 -27.390625 C 5.242188 -28.578125 5.453125 -29.773438 6.046875 -30.984375 C 6.753906 -32.398438 7.960938 -33.363281 9.671875 -33.875 C 11.378906 -34.382812 13.484375 -34.410156 15.984375 -33.953125 C 17.347656 -33.679688 18.742188 -33.285156 20.171875 -32.765625 C 21.597656 -32.253906 22.960938 -31.640625 24.265625 -30.921875 C 25.578125 -30.210938 26.757812 -29.445312 27.8125 -28.625 C 28.875 -27.800781 29.722656 -26.941406 30.359375 -26.046875 C 31.003906 -25.148438 31.367188 -24.269531 31.453125 -23.40625 C 31.484375 -22.96875 31.414062 -22.488281 31.25 -21.96875 C 31.09375 -21.445312 30.742188 -20.929688 30.203125 -20.421875 C 29.671875 -19.921875 28.863281 -19.457031 27.78125 -19.03125 C 24.863281 -18.226562 21.910156 -18.046875 18.921875 -18.484375 C 18.722656 -18.523438 18.5625 -18.625 18.4375 -18.78125 C 18.3125 -18.945312 18.257812 -19.128906 18.28125 -19.328125 C 18.320312 -19.535156 18.421875 -19.703125 18.578125 -19.828125 C 18.742188 -19.953125 18.925781 -20.003906 19.125 -19.984375 C 21.863281 -19.578125 24.566406 -19.734375 27.234375 -20.453125 C 29.140625 -21.179688 30.046875 -22.117188 29.953125 -23.265625 C 29.890625 -23.921875 29.570312 -24.613281 29 -25.34375 C 28.4375 -26.070312 27.679688 -26.800781 26.734375 -27.53125 C 25.785156 -28.257812 24.710938 -28.945312 23.515625 -29.59375 C 22.316406 -30.25 21.046875 -30.828125 19.703125 -31.328125 C 18.367188 -31.828125 17.03125 -32.203125 15.6875 -32.453125 C 15.070312 -32.566406 14.363281 -32.65625 13.5625 -32.71875 C 12.769531 -32.789062 11.972656 -32.773438 11.171875 -32.671875 C 10.367188 -32.566406 9.628906 -32.332031 8.953125 -31.96875 C 8.285156 -31.601562 7.769531 -31.054688 7.40625 -30.328125 C 6.925781 -29.347656 6.78125 -28.367188 6.96875 -27.390625 C 7.15625 -26.410156 7.578125 -25.410156 8.234375 -24.390625 C 8.890625 -23.367188 9.691406 -22.34375 10.640625 -21.3125 C 11.585938 -20.289062 12.59375 -19.242188 13.65625 -18.171875 C 14.75 -17.054688 15.8125 -15.929688 16.84375 -14.796875 C 17.882812 -13.671875 18.78125 -12.519531 19.53125 -11.34375 C 20.289062 -10.175781 20.8125 -8.988281 21.09375 -7.78125 C 21.375 -6.570312 21.3125 -5.320312 20.90625 -4.03125 Z M 20.90625 -4.03125 "/></g></g></g><g fill="#b4a188" fill-opacity="1"><g transform="translate(125.355563, 196.166603)"><g><path d="M 24.078125 -7 C 24.210938 -6.84375 24.28125 -6.660156 24.28125 -6.453125 C 24.257812 -6.242188 24.171875 -6.070312 24.015625 -5.9375 C 23.960938 -5.875 23.679688 -5.628906 23.171875 -5.203125 C 22.660156 -4.785156 21.988281 -4.285156 21.15625 -3.703125 C 20.320312 -3.128906 19.378906 -2.566406 18.328125 -2.015625 C 17.285156 -1.472656 16.179688 -1.039062 15.015625 -0.71875 C 13.859375 -0.394531 12.695312 -0.269531 11.53125 -0.34375 C 10.375 -0.414062 9.265625 -0.800781 8.203125 -1.5 C 7.398438 -2.019531 6.757812 -2.691406 6.28125 -3.515625 C 6.144531 -3.742188 5.929688 -3.867188 5.640625 -3.890625 C 5.367188 -3.910156 5.160156 -3.804688 5.015625 -3.578125 C 4.585938 -2.941406 4.125 -2.335938 3.625 -1.765625 C 3.125 -1.203125 2.613281 -0.75 2.09375 -0.40625 C 1.582031 -0.0625 1.085938 0.117188 0.609375 0.140625 L 0.578125 0.140625 C 0.234375 0.117188 -0.0820312 0.0078125 -0.375 -0.1875 C -0.675781 -0.382812 -0.894531 -0.648438 -1.03125 -0.984375 C -1.613281 -2.421875 -1.53125 -3.820312 -0.78125 -5.1875 C -0.144531 -6.507812 0.738281 -7.632812 1.875 -8.5625 C 3.019531 -9.5 4.316406 -10.140625 5.765625 -10.484375 C 6.046875 -10.554688 6.285156 -10.488281 6.484375 -10.28125 C 6.691406 -10.070312 6.757812 -9.820312 6.6875 -9.53125 C 6.582031 -9.257812 6.390625 -9.085938 6.109375 -9.015625 C 4.898438 -8.722656 3.8125 -8.1875 2.84375 -7.40625 C 1.882812 -6.632812 1.140625 -5.679688 0.609375 -4.546875 C 0.0664062 -3.628906 -0.03125 -2.671875 0.3125 -1.671875 C 0.425781 -1.472656 0.515625 -1.375 0.578125 -1.375 C 0.742188 -1.257812 1 -1.378906 1.34375 -1.734375 C 1.695312 -2.097656 2.09375 -2.601562 2.53125 -3.25 C 2.976562 -3.90625 3.414062 -4.625 3.84375 -5.40625 C 4.28125 -6.195312 4.671875 -6.96875 5.015625 -7.71875 C 5.160156 -8.0625 5.425781 -8.207031 5.8125 -8.15625 C 6.175781 -8.09375 6.390625 -7.878906 6.453125 -7.515625 C 6.453125 -7.492188 6.488281 -7.304688 6.5625 -6.953125 C 6.644531 -6.597656 6.78125 -6.160156 6.96875 -5.640625 C 7.15625 -5.117188 7.414062 -4.59375 7.75 -4.0625 C 8.09375 -3.539062 8.523438 -3.109375 9.046875 -2.765625 C 9.921875 -2.171875 10.875 -1.859375 11.90625 -1.828125 C 12.9375 -1.796875 13.96875 -1.945312 15 -2.28125 C 16.039062 -2.625 17.035156 -3.046875 17.984375 -3.546875 C 18.929688 -4.054688 19.78125 -4.582031 20.53125 -5.125 C 21.28125 -5.664062 21.875 -6.117188 22.3125 -6.484375 C 22.757812 -6.847656 22.992188 -7.039062 23.015625 -7.0625 C 23.160156 -7.1875 23.335938 -7.242188 23.546875 -7.234375 C 23.765625 -7.234375 23.941406 -7.15625 24.078125 -7 Z M 24.078125 -7 "/></g></g></g><g fill="#b4a188" fill-opacity="1"><g transform="translate(153.660279, 196.166603)"><g><path d="M 25.171875 -7.171875 C 25.328125 -7.035156 25.40625 -6.859375 25.40625 -6.640625 C 25.414062 -6.429688 25.347656 -6.253906 25.203125 -6.109375 C 25.160156 -6.046875 24.945312 -5.828125 24.5625 -5.453125 C 24.175781 -5.078125 23.65625 -4.625 23 -4.09375 C 22.351562 -3.570312 21.597656 -3.046875 20.734375 -2.515625 C 19.867188 -1.992188 18.9375 -1.550781 17.9375 -1.1875 C 16.9375 -0.820312 15.90625 -0.609375 14.84375 -0.546875 C 13.78125 -0.484375 12.710938 -0.675781 11.640625 -1.125 C 10.140625 -1.875 8.976562 -2.976562 8.15625 -4.4375 C 8.039062 -4.59375 7.875 -4.832031 7.65625 -5.15625 C 7.445312 -5.476562 7.160156 -5.628906 6.796875 -5.609375 C 6.617188 -5.609375 6.363281 -5.554688 6.03125 -5.453125 C 5.695312 -5.347656 5.265625 -5.132812 4.734375 -4.8125 C 4.203125 -4.5 3.570312 -4.003906 2.84375 -3.328125 C 2.113281 -2.660156 1.257812 -1.765625 0.28125 -0.640625 C 0.03125 -0.347656 -0.273438 -0.285156 -0.640625 -0.453125 C -0.984375 -0.628906 -1.109375 -0.910156 -1.015625 -1.296875 L 0.4375 -7.625 C 0.46875 -7.820312 0.570312 -7.976562 0.75 -8.09375 C 0.9375 -8.207031 1.128906 -8.234375 1.328125 -8.171875 C 1.535156 -8.140625 1.691406 -8.03125 1.796875 -7.84375 C 1.898438 -7.664062 1.9375 -7.476562 1.90625 -7.28125 L 1.234375 -4.4375 C 1.210938 -4.34375 1.253906 -4.265625 1.359375 -4.203125 C 1.453125 -4.160156 1.535156 -4.179688 1.609375 -4.265625 C 3.742188 -6.273438 5.539062 -7.234375 7 -7.140625 C 7.613281 -7.097656 8.128906 -6.847656 8.546875 -6.390625 C 8.878906 -6.046875 9.171875 -5.671875 9.421875 -5.265625 C 10.066406 -4.078125 10.988281 -3.164062 12.1875 -2.53125 C 13.101562 -2.144531 14.03125 -1.988281 14.96875 -2.0625 C 15.914062 -2.144531 16.828125 -2.359375 17.703125 -2.703125 C 18.585938 -3.046875 19.414062 -3.460938 20.1875 -3.953125 C 20.957031 -4.441406 21.632812 -4.925781 22.21875 -5.40625 C 22.800781 -5.894531 23.253906 -6.300781 23.578125 -6.625 C 23.910156 -6.945312 24.085938 -7.117188 24.109375 -7.140625 C 24.234375 -7.296875 24.40625 -7.375 24.625 -7.375 C 24.832031 -7.375 25.015625 -7.304688 25.171875 -7.171875 Z M 25.171875 -7.171875 "/></g></g></g><g fill="#b4a188" fill-opacity="1"><g transform="translate(182.684817, 196.166603)"><g><path d="M 24.078125 -7 C 24.210938 -6.84375 24.28125 -6.660156 24.28125 -6.453125 C 24.257812 -6.242188 24.171875 -6.070312 24.015625 -5.9375 C 23.960938 -5.875 23.679688 -5.628906 23.171875 -5.203125 C 22.660156 -4.785156 21.988281 -4.285156 21.15625 -3.703125 C 20.320312 -3.128906 19.378906 -2.566406 18.328125 -2.015625 C 17.285156 -1.472656 16.179688 -1.039062 15.015625 -0.71875 C 13.859375 -0.394531 12.695312 -0.269531 11.53125 -0.34375 C 10.375 -0.414062 9.265625 -0.800781 8.203125 -1.5 C 7.398438 -2.019531 6.757812 -2.691406 6.28125 -3.515625 C 6.144531 -3.742188 5.929688 -3.867188 5.640625 -3.890625 C 5.367188 -3.910156 5.160156 -3.804688 5.015625 -3.578125 C 4.585938 -2.941406 4.125 -2.335938 3.625 -1.765625 C 3.125 -1.203125 2.613281 -0.75 2.09375 -0.40625 C 1.582031 -0.0625 1.085938 0.117188 0.609375 0.140625 L 0.578125 0.140625 C 0.234375 0.117188 -0.0820312 0.0078125 -0.375 -0.1875 C -0.675781 -0.382812 -0.894531 -0.648438 -1.03125 -0.984375 C -1.613281 -2.421875 -1.53125 -3.820312 -0.78125 -5.1875 C -0.144531 -6.507812 0.738281 -7.632812 1.875 -8.5625 C 3.019531 -9.5 4.316406 -10.140625 5.765625 -10.484375 C 6.046875 -10.554688 6.285156 -10.488281 6.484375 -10.28125 C 6.691406 -10.070312 6.757812 -9.820312 6.6875 -9.53125 C 6.582031 -9.257812 6.390625 -9.085938 6.109375 -9.015625 C 4.898438 -8.722656 3.8125 -8.1875 2.84375 -7.40625 C 1.882812 -6.632812 1.140625 -5.679688 0.609375 -4.546875 C 0.0664062 -3.628906 -0.03125 -2.671875 0.3125 -1.671875 C 0.425781 -1.472656 0.515625 -1.375 0.578125 -1.375 C 0.742188 -1.257812 1 -1.378906 1.34375 -1.734375 C 1.695312 -2.097656 2.09375 -2.601562 2.53125 -3.25 C 2.976562 -3.90625 3.414062 -4.625 3.84375 -5.40625 C 4.28125 -6.195312 4.671875 -6.96875 5.015625 -7.71875 C 5.160156 -8.0625 5.425781 -8.207031 5.8125 -8.15625 C 6.175781 -8.09375 6.390625 -7.878906 6.453125 -7.515625 C 6.453125 -7.492188 6.488281 -7.304688 6.5625 -6.953125 C 6.644531 -6.597656 6.78125 -6.160156 6.96875 -5.640625 C 7.15625 -5.117188 7.414062 -4.59375 7.75 -4.0625 C 8.09375 -3.539062 8.523438 -3.109375 9.046875 -2.765625 C 9.921875 -2.171875 10.875 -1.859375 11.90625 -1.828125 C 12.9375 -1.796875 13.96875 -1.945312 15 -2.28125 C 16.039062 -2.625 17.035156 -3.046875 17.984375 -3.546875 C 18.929688 -4.054688 19.78125 -4.582031 20.53125 -5.125 C 21.28125 -5.664062 21.875 -6.117188 22.3125 -6.484375 C 22.757812 -6.847656 22.992188 -7.039062 23.015625 -7.0625 C 23.160156 -7.1875 23.335938 -7.242188 23.546875 -7.234375 C 23.765625 -7.234375 23.941406 -7.15625 24.078125 -7 Z M 24.078125 -7 "/></g></g></g><g fill="#b4a188" fill-opacity="1"><g transform="translate(210.989533, 196.166603)"><g><path d="M 25.171875 -7.171875 C 25.328125 -7.035156 25.40625 -6.859375 25.40625 -6.640625 C 25.414062 -6.429688 25.347656 -6.253906 25.203125 -6.109375 C 25.160156 -6.046875 24.945312 -5.828125 24.5625 -5.453125 C 24.175781 -5.078125 23.65625 -4.625 23 -4.09375 C 22.351562 -3.570312 21.597656 -3.046875 20.734375 -2.515625 C 19.867188 -1.992188 18.9375 -1.550781 17.9375 -1.1875 C 16.9375 -0.820312 15.90625 -0.609375 14.84375 -0.546875 C 13.78125 -0.484375 12.710938 -0.675781 11.640625 -1.125 C 10.140625 -1.875 8.976562 -2.976562 8.15625 -4.4375 C 8.039062 -4.59375 7.875 -4.832031 7.65625 -5.15625 C 7.445312 -5.476562 7.160156 -5.628906 6.796875 -5.609375 C 6.617188 -5.609375 6.363281 -5.554688 6.03125 -5.453125 C 5.695312 -5.347656 5.265625 -5.132812 4.734375 -4.8125 C 4.203125 -4.5 3.570312 -4.003906 2.84375 -3.328125 C 2.113281 -2.660156 1.257812 -1.765625 0.28125 -0.640625 C 0.03125 -0.347656 -0.273438 -0.285156 -0.640625 -0.453125 C -0.984375 -0.628906 -1.109375 -0.910156 -1.015625 -1.296875 L 0.4375 -7.625 C 0.46875 -7.820312 0.570312 -7.976562 0.75 -8.09375 C 0.9375 -8.207031 1.128906 -8.234375 1.328125 -8.171875 C 1.535156 -8.140625 1.691406 -8.03125 1.796875 -7.84375 C 1.898438 -7.664062 1.9375 -7.476562 1.90625 -7.28125 L 1.234375 -4.4375 C 1.210938 -4.34375 1.253906 -4.265625 1.359375 -4.203125 C 1.453125 -4.160156 1.535156 -4.179688 1.609375 -4.265625 C 3.742188 -6.273438 5.539062 -7.234375 7 -7.140625 C 7.613281 -7.097656 8.128906 -6.847656 8.546875 -6.390625 C 8.878906 -6.046875 9.171875 -5.671875 9.421875 -5.265625 C 10.066406 -4.078125 10.988281 -3.164062 12.1875 -2.53125 C 13.101562 -2.144531 14.03125 -1.988281 14.96875 -2.0625 C 15.914062 -2.144531 16.828125 -2.359375 17.703125 -2.703125 C 18.585938 -3.046875 19.414062 -3.460938 20.1875 -3.953125 C 20.957031 -4.441406 21.632812 -4.925781 22.21875 -5.40625 C 22.800781 -5.894531 23.253906 -6.300781 23.578125 -6.625 C 23.910156 -6.945312 24.085938 -7.117188 24.109375 -7.140625 C 24.234375 -7.296875 24.40625 -7.375 24.625 -7.375 C 24.832031 -7.375 25.015625 -7.304688 25.171875 -7.171875 Z M 25.171875 -7.171875 "/></g></g></g><g fill="#b4a188" fill-opacity="1"><g transform="translate(240.014071, 196.166603)"><g><path d="M 25.171875 -7.171875 C 25.328125 -7.035156 25.40625 -6.859375 25.40625 -6.640625 C 25.414062 -6.429688 25.347656 -6.253906 25.203125 -6.109375 C 25.160156 -6.046875 24.945312 -5.828125 24.5625 -5.453125 C 24.175781 -5.078125 23.65625 -4.625 23 -4.09375 C 22.351562 -3.570312 21.597656 -3.046875 20.734375 -2.515625 C 19.867188 -1.992188 18.9375 -1.550781 17.9375 -1.1875 C 16.9375 -0.820312 15.90625 -0.609375 14.84375 -0.546875 C 13.78125 -0.484375 12.710938 -0.675781 11.640625 -1.125 C 10.140625 -1.875 8.976562 -2.976562 8.15625 -4.4375 C 8.039062 -4.59375 7.875 -4.832031 7.65625 -5.15625 C 7.445312 -5.476562 7.160156 -5.628906 6.796875 -5.609375 C 6.617188 -5.609375 6.363281 -5.554688 6.03125 -5.453125 C 5.695312 -5.347656 5.265625 -5.132812 4.734375 -4.8125 C 4.203125 -4.5 3.570312 -4.003906 2.84375 -3.328125 C 2.113281 -2.660156 1.257812 -1.765625 0.28125 -0.640625 C 0.03125 -0.347656 -0.273438 -0.285156 -0.640625 -0.453125 C -0.984375 -0.628906 -1.109375 -0.910156 -1.015625 -1.296875 L 0.4375 -7.625 C 0.46875 -7.820312 0.570312 -7.976562 0.75 -8.09375 C 0.9375 -8.207031 1.128906 -8.234375 1.328125 -8.171875 C 1.535156 -8.140625 1.691406 -8.03125 1.796875 -7.84375 C 1.898438 -7.664062 1.9375 -7.476562 1.90625 -7.28125 L 1.234375 -4.4375 C 1.210938 -4.34375 1.253906 -4.265625 1.359375 -4.203125 C 1.453125 -4.160156 1.535156 -4.179688 1.609375 -4.265625 C 3.742188 -6.273438 5.539062 -7.234375 7 -7.140625 C 7.613281 -7.097656 8.128906 -6.847656 8.546875 -6.390625 C 8.878906 -6.046875 9.171875 -5.671875 9.421875 -5.265625 C 10.066406 -4.078125 10.988281 -3.164062 12.1875 -2.53125 C 13.101562 -2.144531 14.03125 -1.988281 14.96875 -2.0625 C 15.914062 -2.144531 16.828125 -2.359375 17.703125 -2.703125 C 18.585938 -3.046875 19.414062 -3.460938 20.1875 -3.953125 C 20.957031 -4.441406 21.632812 -4.925781 22.21875 -5.40625 C 22.800781 -5.894531 23.253906 -6.300781 23.578125 -6.625 C 23.910156 -6.945312 24.085938 -7.117188 24.109375 -7.140625 C 24.234375 -7.296875 24.40625 -7.375 24.625 -7.375 C 24.832031 -7.375 25.015625 -7.304688 25.171875 -7.171875 Z M 25.171875 -7.171875 "/></g></g></g><g fill="#b4a188" fill-opacity="1"><g transform="translate(269.03861, 196.166603)"><g><path d="M 24.15625 -7.40625 C 24.289062 -7.25 24.347656 -7.066406 24.328125 -6.859375 C 24.304688 -6.640625 24.210938 -6.460938 24.046875 -6.328125 C 23.972656 -6.273438 23.628906 -6.019531 23.015625 -5.5625 C 22.398438 -5.113281 21.570312 -4.578125 20.53125 -3.953125 C 19.5 -3.335938 18.300781 -2.722656 16.9375 -2.109375 C 15.570312 -1.492188 14.109375 -0.984375 12.546875 -0.578125 C 10.992188 -0.171875 9.394531 0.03125 7.75 0.03125 C 5.789062 0.0507812 3.910156 -0.300781 2.109375 -1.03125 C 1.109375 -1.4375 0.40625 -1.90625 0 -2.4375 C -0.40625 -2.976562 -0.632812 -3.507812 -0.6875 -4.03125 C -0.75 -4.550781 -0.738281 -4.992188 -0.65625 -5.359375 C -0.488281 -6.066406 -0.15625 -6.75 0.34375 -7.40625 C 0.84375 -8.070312 1.425781 -8.671875 2.09375 -9.203125 C 2.769531 -9.734375 3.457031 -10.140625 4.15625 -10.421875 C 4.863281 -10.710938 5.503906 -10.835938 6.078125 -10.796875 C 6.597656 -10.796875 7.046875 -10.613281 7.421875 -10.25 C 7.796875 -9.882812 8 -9.429688 8.03125 -8.890625 C 8.050781 -8.585938 7.972656 -8.207031 7.796875 -7.75 C 7.628906 -7.300781 7.191406 -6.847656 6.484375 -6.390625 C 4.847656 -5.367188 3.0625 -4.921875 1.125 -5.046875 C 1.03125 -5.054688 0.941406 -5.035156 0.859375 -4.984375 C 0.785156 -4.921875 0.757812 -4.84375 0.78125 -4.75 C 0.757812 -4.582031 0.773438 -4.363281 0.828125 -4.09375 C 0.890625 -3.820312 1.054688 -3.539062 1.328125 -3.25 C 1.597656 -2.96875 2.046875 -2.703125 2.671875 -2.453125 C 3.984375 -1.890625 5.320312 -1.566406 6.6875 -1.484375 C 8.0625 -1.410156 9.410156 -1.5 10.734375 -1.75 C 12.066406 -2 13.34375 -2.347656 14.5625 -2.796875 C 15.78125 -3.253906 16.898438 -3.75 17.921875 -4.28125 C 18.953125 -4.820312 19.847656 -5.332031 20.609375 -5.8125 C 21.378906 -6.289062 21.984375 -6.691406 22.421875 -7.015625 C 22.867188 -7.347656 23.09375 -7.515625 23.09375 -7.515625 C 23.269531 -7.648438 23.460938 -7.707031 23.671875 -7.6875 C 23.859375 -7.664062 24.019531 -7.570312 24.15625 -7.40625 Z M 1.78125 -6.796875 C 1.570312 -6.503906 1.597656 -6.34375 1.859375 -6.3125 C 2.117188 -6.289062 2.488281 -6.347656 2.96875 -6.484375 C 3.445312 -6.628906 3.941406 -6.8125 4.453125 -7.03125 C 4.960938 -7.257812 5.367188 -7.46875 5.671875 -7.65625 C 6.265625 -8.0625 6.546875 -8.425781 6.515625 -8.75 C 6.492188 -8.96875 6.4375 -9.109375 6.34375 -9.171875 C 6.257812 -9.234375 6.140625 -9.273438 5.984375 -9.296875 C 5.367188 -9.335938 4.660156 -9.125 3.859375 -8.65625 C 3.054688 -8.1875 2.363281 -7.566406 1.78125 -6.796875 Z M 1.78125 -6.796875 "/></g></g></g></svg>